<svg id="Background" xmlns="http://www.w3.org/2000/svg" viewBox="0 0 99.34 95.87"><defs><style>.cls-1{fill:#1f1f33;}.cls-2{fill:#007bff;}.cls-3{fill:#ec827d;}.cls-4{fill:#f1f2f2;}.cls-5{fill:#ffc8af;}.cls-6{fill:#56548c;}.cls-7{fill:#fbd15b;}.cls-8{fill:#606bf1;}.cls-9{fill:#edb29a;}.cls-10{fill:#e8eaeb;}.cls-11{fill:#bee1f4;}.cls-12{fill:#a5b7c6;}.cls-13{fill:#e6e7e8;}.cls-14{fill:#112b46;}.cls-15{fill:#fff;}</style></defs><title>Mesa de trabajo 5</title><path class="cls-1" d="M19.3,36.85V31.28H4.81V24L20.19,2.18H31.06V24.51h3.08v6.77H31.06v5.57ZM13.06,24.51H19.3V15.73Z"/><path class="cls-1" d="M39.64,33.2q-4.08-4.29-4.08-13.68c0-6.26,1.36-10.83,4.08-13.68s6.6-4.28,11.61-4.28S60.14,3,62.86,5.84s4.08,7.42,4.08,13.68c0,5.79-1.25,10.22-3.76,13.32s-6.49,4.63-11.93,4.63C46.24,37.47,42.36,36.05,39.64,33.2Zm14.64-7V12.79c0-2.21-1-3.3-3-3.3s-3,1.09-3,3.3V26.25c0,2.2,1,3.29,3,3.29S54.28,28.45,54.28,26.25Z"/><path class="cls-1" d="M82.85,36.85V31.28H68.37V24L83.74,2.18H94.62V24.51h3.07v6.77H94.62v5.57ZM76.61,24.51h6.24V15.73Z"/><path class="cls-2" d="M17.74,35.29V29.72H3.25V22.41L18.63.62H29.5V23h3.08v6.77H29.5v5.57ZM11.5,23h6.24V14.17Z"/><path class="cls-2" d="M38.08,31.64C35.36,28.79,34,24.22,34,18S35.36,7.13,38.08,4.28,44.68,0,49.69,0,58.58,1.43,61.3,4.28,65.38,11.7,65.38,18c0,5.79-1.25,10.22-3.76,13.32s-6.49,4.63-11.93,4.63C44.68,35.91,40.8,34.49,38.08,31.64Zm14.64-6.95V11.23c0-2.21-1-3.3-3-3.3s-3,1.09-3,3.3V24.69c0,2.2,1,3.29,3,3.29S52.72,26.89,52.72,24.69Z"/><path class="cls-2" d="M81.29,35.29V29.72H66.81V22.41L82.18.62H93.06V23h3.07v6.77H93.06v5.57ZM75.05,23h6.24V14.17Z"/><path class="cls-3" d="M70.69,24.22A4.3,4.3,0,0,0,67.48,21a4.38,4.38,0,0,0-3.7.82,4.32,4.32,0,0,0-1.63,3.39.89.89,0,0,0,1.78,0,2.56,2.56,0,0,1,3.17-2.49A2.47,2.47,0,0,1,69,24.6,2.56,2.56,0,0,1,68.32,27a9.14,9.14,0,0,0-2.72,6.35v.6a.9.9,0,0,0,1.79,0v-.6a7.42,7.42,0,0,1,2.2-5.12A4.25,4.25,0,0,0,70.69,24.22ZM66.61,35.71a1,1,0,1,0,1,1A1,1,0,0,0,66.61,35.71Z"/><path class="cls-4" d="M66.47,34.87a1,1,0,0,0,.56-.2.89.89,0,0,1-.85-.89v-.61a9.1,9.1,0,0,1,2.72-6.35,2.5,2.5,0,0,0,.65-2.38,2.47,2.47,0,0,0-1.87-1.87,2.64,2.64,0,0,0-1.72.18,2.6,2.6,0,0,1,1.11,0A2.49,2.49,0,0,1,69,24.64,2.59,2.59,0,0,1,68.3,27a9.1,9.1,0,0,0-2.72,6.34V34A.91.91,0,0,0,66.47,34.87Z"/><path class="cls-4" d="M62.75,25a4.36,4.36,0,0,1,1.63-3.39,4.82,4.82,0,0,1,1-.6,4.46,4.46,0,0,0-1.6.8,4.32,4.32,0,0,0-1.63,3.39.89.89,0,0,0,.89.89,1,1,0,0,0,.56-.2A.88.88,0,0,1,62.75,25Z"/><path class="cls-4" d="M66.27,36.45a.91.91,0,0,1,.36-.74h0a1,1,0,0,0,0,1.92,1,1,0,0,0,.58-.2A1,1,0,0,1,66.27,36.45Z"/><path class="cls-5" d="M48.65,92.5a.61.61,0,0,1,.4-.08l.82-.09-.73-1.12.13-4.74h-3c.11,3.92.17,5,.2,6.08l1,.24a.62.62,0,0,0,.53-.08Z"/><path class="cls-6" d="M46.48,92.57c0,.45,0,.89,0,1.32h3.94a.26.26,0,0,0,.25-.25.35.35,0,0,0-.05-.13l-.78-1.18H49a.56.56,0,0,0-.4.09l-.52.29a.74.74,0,0,1-.53.08Z"/><path class="cls-5" d="M54.57,92.33l2.48.46a1.13,1.13,0,0,0,1.16-.46l-1.16-.92c.06-.75.24-4.45.24-4.45H54.42Z"/><path class="cls-6" d="M54.57,92.33l0,1.29v.24h4.88a.24.24,0,0,0,.15-.42l-1.42-1.11a1.19,1.19,0,0,1-1.16.46Z"/><path class="cls-5" d="M44.79,52.87l-1.36,1a1.08,1.08,0,0,0-.13.85,2.72,2.72,0,0,0,.58,1.05s-1,0-1,.31,1.39.64,2.39.55a18.27,18.27,0,0,1,.6-2.91Z"/><path class="cls-5" d="M65.72,40.64s-3.21,11-5.2,10.87a.16.16,0,0,1-.09,0c-1.64-.25-3-3.39-3.67-5.46.06-.36.13-.69.22-1.05.69-2.52,1.18-3.92,0-6.28l1.87-1.16,2,9.38s3.41-7.55,3.81-8c.58-.66,1.47-.37,2.08-.53s2.09-.8,2.43-.38S65.72,40.64,65.72,40.64Z"/><path class="cls-7" d="M58.85,37.56,57,38.72c1.18,2.36.69,3.74,0,6.28a8.19,8.19,0,0,0-.22,1,15.15,15.15,0,0,0-.11,4.15H47.06l-2.18-9.61-2,1.34-.15-.29-.16-.24-1.87-3.21-.16-.25a20,20,0,0,1,4.28-3.21,10.55,10.55,0,0,1,4.55-1.38,2.18,2.18,0,0,0,4.19,0,6.09,6.09,0,0,1,4.52,1.9,5.69,5.69,0,0,1,1.25,2Z"/><path class="cls-6" d="M59,61.67c0,5.75-1.12,17.53-1.41,25.78H54.19l-1.4-27.9H51.36l-1.85,27.9H46.13c-.29-8.27-1.41-20-1.41-25.78a30.84,30.84,0,0,1,.27-4,29.27,29.27,0,0,1,.8-3.92,25.39,25.39,0,0,1,1.27-3.61h9.59A29,29,0,0,1,59,61.67Z"/><path class="cls-8" d="M58.14,34.56a4,4,0,0,1-.09.69,6,6,0,0,0-4.5-1.9,1.93,1.93,0,0,1-.36-1,5.21,5.21,0,0,0,2.14-.52,8.31,8.31,0,0,0,0-7.1,3.48,3.48,0,0,1-2,2.4,3,3,0,0,0-1.31,1.76s-.27-1.13-1-1.07-.51,1.63-.51,1.63l.58.73a3,3,0,0,1-1.74,3.23,10.7,10.7,0,0,0-4.55,1.39,3,3,0,0,1,.63-1.67c.49-.61.89-.54,1.22-1.07.51-.9-1-1.61-.62-2.68s.82-1,1.34-2c.62-1.23,0-1.83.42-3,.49-1.54,3.39-2.48,5.26-2.41,2.27.07,4.43,1.74,4.59,3.34.07.8-.4,1.16-.18,2.21s.91,1.22,1,2.09c.07,1.21-1.16,1.47-1.11,2.7C57.36,33.2,58.14,33.44,58.14,34.56Z"/><path class="cls-5" d="M38.44,46.9a.76.76,0,0,1-.27-.58.84.84,0,0,1,.25-.65l4.12-4.3-1.87-3.18c-1.41,1.45-6.51,6.86-6.15,8.42.42,1.83,8.84,7.53,8.84,7.53l1.43-1.27Z"/><path class="cls-5" d="M55.33,31.79s0,.09-.24.2a5.58,5.58,0,0,1-1.59.36,5.8,5.8,0,0,0,0,1,2.18,2.18,0,0,1-4.19,0,3,3,0,0,0,1.74-2.49,2.7,2.7,0,0,0,0-.74s-.42,0-.55-.73c-.09-.42-.25-1.56.51-1.63s1,1.07,1,1.07a3,3,0,0,1,1.31-1.76,3.48,3.48,0,0,0,2-2.4A8.29,8.29,0,0,1,55.33,31.79Z"/><path class="cls-9" d="M51.63,30.12a2.62,2.62,0,0,1-.53.74,2.68,2.68,0,0,0,0-.74A1.08,1.08,0,0,0,51.63,30.12Z"/><path class="cls-9" d="M53.55,33.35c-.51-.09-.87-1.16-.87-1.16a7.35,7.35,0,0,0,2.41-.2,5.58,5.58,0,0,1-1.59.36A5.65,5.65,0,0,0,53.55,33.35Z"/><path class="cls-9" d="M42.54,41.4l-4.12,4.3a.85.85,0,0,0-.25.64.61.61,0,0,1-.07-.56c.27-.49,3.82-4.23,3.84-4.38s-1.18-3-1.25-3.19Z"/><path class="cls-9" d="M60.43,51.51c-1.64-.24-3-3.39-3.67-5.46.06-.35.13-.69.22-1,.69-2.51,1.18-3.92,0-6.28l1.87-1.16c-.09.07-1.36,1.21-1.4,1.32a30,30,0,0,1,.47,3.18C58,44.18,58.32,49.17,60.43,51.51Z"/><path class="cls-4" d="M48.62,47.77a24.23,24.23,0,0,1,0,2.43,15.62,15.62,0,0,1-.84,4.41c-1,2.74-1.47,10.42-.92,15.84.4,4,.45,12.65.43,17H46.13c-.29-8.27-1.41-20-1.41-25.78a30.56,30.56,0,0,1,.27-4,28.63,28.63,0,0,1,.8-3.92,25.39,25.39,0,0,1,1.27-3.61l-2.18-9.61-2,1.34-.15-.29,3.1-2.58a30.94,30.94,0,0,0,1.56,4A7.7,7.7,0,0,0,50,44.74,5.63,5.63,0,0,0,48.62,47.77Z"/><path class="cls-8" d="M95.44,42.44,91.32,41.2c-.27.53-.67,1.31-1.34,1.24,0,0,0,0-.06,0-.78-.58-2.37-8.56-2.79-10.81a2.68,2.68,0,0,0,1.85,0,2.09,2.09,0,0,0,1.25-1h3c2.41.16,3.52.53,4.08,1.8C98.14,34.2,97.47,38,95.44,42.44Z"/><path class="cls-8" d="M93.26,90.57v3.32H87.38a.72.72,0,0,1-.72-.72v-.06a.78.78,0,0,1,.23-.45l2.2-2.09Z"/><path class="cls-6" d="M93.26,58.71V90.54H89.09s-1.94-25-2.38-30.67h-.92V90.54H81.63L79.18,58.71Z"/><path class="cls-8" d="M94.51,42.78V58.73H79.18l.55-19.12-2.78,2-.49-.44-.09-.07L72.91,38l-.15-.2,4.12-4.63c2.21-2,4.48-2.43,7.42-2.57a3.91,3.91,0,0,0,.62,1.19c.61.69.58,6,.83,7.75.45,3.32,1.87,7.06,3.85,7.28a1.78,1.78,0,0,0,1.1-.22C91.79,46.05,92.61,43.47,94.51,42.78Z"/><path class="cls-10" d="M94.51,42.78V58.73H89.6V46.88a1.86,1.86,0,0,0,1.1-.23C91.79,46.05,92.61,43.47,94.51,42.78Z"/><path class="cls-6" d="M93.71,21.63a10,10,0,0,1-3,6.33c0-.58,0-1.18,0-1.71l.45-.41a1.27,1.27,0,0,0,.38-1.18c-.07-.33-.22-.64-.54-.66-.69-.07-.62,1.76-1.18,1.89s0-2,0-2l-.51-.69c0-.06,0-.13,0-.2A1.5,1.5,0,0,0,88,21.52a24.72,24.72,0,0,1-2.62-.6,4.92,4.92,0,0,1-1-.38,1.65,1.65,0,0,1,.09-2.87c.84-.27,2.16,1,3.07.76a5.36,5.36,0,0,1,2.48-.21c.64.23.57,1.21,1.38,1.5S93.71,20.1,93.71,21.63Z"/><path class="cls-5" d="M91.12,25.84l-.45.41c0,.53,0,1.13,0,1.71,0,1,.06,2.83.06,2.83a3.27,3.27,0,0,1-1.6.85,4.69,4.69,0,0,1-1.38.06,2.34,2.34,0,0,1-.65-.13C87.06,31.19,87,31,87,31s.33-3.23.33-3.34a2.35,2.35,0,0,0-1.29-1.29h0a1.35,1.35,0,0,0-.34-.11h0a2.44,2.44,0,0,0-.73-.09,1.88,1.88,0,0,0-.36,0,12.11,12.11,0,0,1,.8-5.28,22,22,0,0,0,2.63.6A1.5,1.5,0,0,1,89.27,23a.65.65,0,0,1,0,.2l.51.69s-.56,2.16,0,2,.49-2,1.18-1.89c.31,0,.47.33.54.66A1.26,1.26,0,0,1,91.12,25.84Z"/><path class="cls-8" d="M85.82,90.57v3.32H79.93a.73.73,0,0,1-.71-.78.77.77,0,0,1,.22-.45l2.19-2.09Z"/><path class="cls-5" d="M79.47,48.41l-.12,3.9c-1,.27-2,0-2-.29s1.21-.51,1.14-.8-.6-.16-1.11-.09a1.17,1.17,0,0,1-1.12-.53s0,0,0-.05l-.25-.44s-.37-.32-1-.81c-.89-.73-2.22-1.89-3.41-3a2.58,2.58,0,0,1,1-1.91,2.72,2.72,0,0,1,1.27-.54,24.27,24.27,0,0,0,2.65,3.59c.23.18.45.36.72.54a2.74,2.74,0,0,1,1-.14A2.39,2.39,0,0,1,79.47,48.41Z"/><path class="cls-5" d="M75.92,40.73l-.49.47-.89.86A4.28,4.28,0,0,0,71.4,43a4.21,4.21,0,0,0-1.32,1.78,5.2,5.2,0,0,1-.84-1.2c-.69-1.41,3.12-5,3.63-5.46,0-.05.07-.05.07-.05Z"/><path class="cls-3" d="M75.92,50.08l-1-.8a8.8,8.8,0,0,0-1.74,5.19v.61a.9.9,0,0,0,1.79,0v-.61a7,7,0,0,1,1.22-3.9s0,0,0,0Zm2.39-4.74a4.29,4.29,0,0,0-3.12-3.19l-.09,0a4.29,4.29,0,0,0-3.7.83,4.15,4.15,0,0,0-1.32,1.78,4.34,4.34,0,0,0-.31,1.6.89.89,0,0,0,1.78,0v-.09a2.57,2.57,0,0,1,1-1.91,2.57,2.57,0,0,1,2.21-.49,2.5,2.5,0,0,1,1.87,1.87,2.64,2.64,0,0,1-.16,1.67,8.39,8.39,0,0,0,.72.53,2.85,2.85,0,0,1,1-.13A4.15,4.15,0,0,0,78.31,45.34ZM74.25,56.81a1,1,0,0,0-1,1,1,1,0,0,0,1.9,0A1,1,0,0,0,74.25,56.81Z"/><path class="cls-4" d="M74.25,56.81h-.07a1,1,0,0,1,.38.76.94.94,0,0,1-.89.94,1,1,0,0,0,.58.2.93.93,0,0,0,.94-.94A1,1,0,0,0,74.25,56.81Z"/><path class="cls-4" d="M74.54,43.82a2.63,2.63,0,0,0-1.38-.2,2.36,2.36,0,0,0-1.27.54,2.55,2.55,0,0,0-1,1.91v.09a.86.86,0,0,1-.8.87.93.93,0,0,0,.56.2.89.89,0,0,0,.89-.89v-.09a2.54,2.54,0,0,1,1-1.91,2.76,2.76,0,0,1,1.27-.54A3.11,3.11,0,0,1,74.54,43.82Z"/><path class="cls-4" d="M78.31,45.34a4.29,4.29,0,0,0-3.12-3.19l-.09,0a.1.1,0,0,1-.07,0,4.33,4.33,0,0,1,2.52,5.48,2.92,2.92,0,0,0-.76,0l.36.27a2.62,2.62,0,0,1,1-.13A4.08,4.08,0,0,0,78.31,45.34Z"/><path class="cls-4" d="M75.92,50.08l-1-.8-.15.23c.31.24.49.4.49.4l.24.44s0,0,0,0a7,7,0,0,0-1.22,3.9v.6a.87.87,0,0,1-.8.87.92.92,0,0,0,.55.2.89.89,0,0,0,.89-.89v-.61a7,7,0,0,1,1.23-3.9s0,0,0,0Z"/><path class="cls-9" d="M87.78,31.73a2.73,2.73,0,0,1-.65-.14C87.06,31.21,87,31,87,31s.33-3.23.33-3.34a2.35,2.35,0,0,0-1.29-1.29,3.57,3.57,0,0,1,1.78,1.16C88.09,27.92,87.89,30.43,87.78,31.73Z"/><path class="cls-9" d="M75.92,40.73l-.49.47c-.49-.61-1.76-2.12-2.56-3.12,0,0,.07,0,.07,0Z"/><path class="cls-5" d="M94.93,42.29c-.07.11-.13.26-.22.42a9.8,9.8,0,0,1-4,3.92c-2.52,1.34-4.84-2.85-5.35-6.77-.22-1.76.2-7.38-.43-8.07a3.15,3.15,0,0,1-.62-1.18,3.06,3.06,0,0,1-.13-1.71c.13-.36.51-1.07.13-1.23s-.49,1-1,.85c-.27-.07-.14-2,1.27-2.34a2.11,2.11,0,0,1,.35-.05,2.57,2.57,0,0,1,2.43,1.52C87.33,27.76,87,31,87,31l.11.58C87.55,33.89,90,42.42,90,42.42s.63-.51,1.09-1a3.23,3.23,0,0,0,.25-.29v0Z"/><path class="cls-10" d="M90.87,41.06l.45.14c-.27.53-.67,1.31-1.34,1.24,0,0,0,0-.06,0A23.55,23.55,0,0,1,91,37.74a4.88,4.88,0,0,1,1.72-2.2Z"/><path class="cls-9" d="M94.93,42.29c-.07.11-.13.26-.22.42l-3.66-1.25a3.23,3.23,0,0,0,.25-.29v0Z"/><path class="cls-10" d="M93.26,58.71V90.57H92L91,59.29l-11.83-.58Z"/><path class="cls-10" d="M85.82,59.89V90.57H84.61l-.26-30.68Z"/><path class="cls-11" d="M79.22,93.11h6.6v.78H79.93A.73.73,0,0,1,79.22,93.11Z"/><path class="cls-11" d="M93.26,93.11v.78H87.38a.72.72,0,0,1-.72-.72v-.06Z"/><path class="cls-9" d="M90.67,26.25a1.43,1.43,0,0,1-.69.13s.2.22.34.24S90.67,26.25,90.67,26.25Z"/><path class="cls-10" d="M79.73,36.52v3.07L77,41.66l-.47-.44Z"/><path class="cls-3" d="M27.05,74.7,21.84,89.12a3.93,3.93,0,0,1-3.3-1.49l3-13.71-2.4-13H17.91L17.2,90.54a6.77,6.77,0,0,1-3.94,0l-1.79-30.5,0-.69H25.29l.09.53,2,11.87A5.61,5.61,0,0,1,27.05,74.7Z"/><path class="cls-5" d="M27.05,49.93s.69,2,.16,2.81a2.87,2.87,0,0,1-.4.46,6.83,6.83,0,0,1-1.21.92,48,48,0,0,1-.78-5.55,4.85,4.85,0,0,1,1.34,1.34h.89Z"/><path class="cls-6" d="M23.53,93.15a.72.72,0,0,1-.16.27c-.24.29-.69.31-1.47.11A7,7,0,0,1,19.7,92c-.92-.84-1.72-1.74-1.72-1.74l.14-.64.42-2a3.85,3.85,0,0,0,3.3,1.49l.75,2.47S23.73,92.59,23.53,93.15Z"/><path class="cls-5" d="M22.13,30.39c-.29.33-1.72.2-1.72.2v.62a2.3,2.3,0,0,1-4.59.05V29.5c1.31,0,1.25-1,1.25-1a1.6,1.6,0,0,1-.78-1.16c-.05-.73.8-1.29,1.13-1.15s.23,2,.85,1.82c.18,0,.22-.8.22-1.22a.62.62,0,0,1,.2-.47l.21-.2a.85.85,0,0,0,.17-.29l.38-1.25a5.55,5.55,0,0,0,2.94-1A10,10,0,0,1,22.13,30.39Z"/><path class="cls-6" d="M19.74,93.89h-6.3l0-.69-.15-2.63a6.77,6.77,0,0,0,3.94,0l2.07,1.92.76.69,0,0A.42.42,0,0,1,19.74,93.89Z"/><path class="cls-12" d="M33.07,43.71c-.56-3.27-6.46-10.09-7.67-10.91-1-.74-4.23-1.41-5-1.56a2.31,2.31,0,0,1-4.59,0c-1.18.33-6.3,1.76-7.2,2.25s-6,5.64-6.84,12.23c-.51,4.12,2.94,7.24,7.6,8v2.05l1.07,1.07V59.4H25.31V56.52l.67-.66c-.13-.58-.24-1.14-.33-1.7a45.65,45.65,0,0,1-.78-5.55,30.12,30.12,0,0,1,.27-7.06s3.18,1.16,3.36,3.28A3.34,3.34,0,0,1,28,46.94a5.43,5.43,0,0,1-1.3,1.41v.95l-.49.65h.89s.69,2,.16,2.81a3.44,3.44,0,0,1-.4.47,1.28,1.28,0,0,0,1.11-.65,11.73,11.73,0,0,0,1.9-.62C30.57,51.58,33.76,47.79,33.07,43.71ZM9.38,48.32a2.92,2.92,0,0,1-2.07-1.53A3.3,3.3,0,0,1,7,45.72c0-.07,0-.14,0-.2a2.94,2.94,0,0,1,.06-.85,5.42,5.42,0,0,1,2.3-3.12ZM19,56.66a1,1,0,0,1-1-1,.95.95,0,0,1,1.89,0A1,1,0,0,1,19,56.66Zm3.18-9.16a12,12,0,0,1-.51,1.69v.74a1.47,1.47,0,0,1-1.47,1.47h-.36a8.78,8.78,0,0,0-.09,1V53A.89.89,0,0,1,18,53v-.61a7,7,0,0,1,.07-1H16.71V49h.69l.43-1.4a1,1,0,0,1,.62-.67L20.72,46a2.54,2.54,0,0,0-1.25-4.23,2.56,2.56,0,0,0-3.16,2.49.89.89,0,0,1-1.78,0,4.35,4.35,0,0,1,1.62-3.38,4.33,4.33,0,0,1,6.91,2.38,4.36,4.36,0,0,1-.91,3.81C22.3,47.14,22.24,47.3,22.19,47.5Z"/><path class="cls-13" d="M16.71,49v-.26h-.93a5.35,5.35,0,0,0-.54-.25c-.2-.09-4.23,0-4.23,0s3.87-.29,4.59-.24a3.22,3.22,0,0,1,1.56.49,1,1,0,0,1,.18.26Z"/><path class="cls-14" d="M22.42,23.57a5.62,5.62,0,0,1-3,1l-.37,1.25a.55.55,0,0,1-.18.29l-.2.2a.63.63,0,0,0-.2.47c0,.42-.05,1.18-.23,1.23-.64.17-.51-1.7-.84-1.83s-1.18.42-1.14,1.16a1.63,1.63,0,0,0,.78,1.16s.07,1.09-1.25,1c-.15,0-.53-.82-.58-.94a5.94,5.94,0,0,1-.31-5,4,4,0,0,1,.49-.89.94.94,0,0,1,.49-.32,4.68,4.68,0,0,0,.67-.11c.16-.06.18-.29.33-.4a1.87,1.87,0,0,1,.76-.27,10.57,10.57,0,0,1,3.41-.2c.56.07,1.41.23,1.72.76A1,1,0,0,1,22.42,23.57Z"/><path class="cls-3" d="M23.08,43.27a4.32,4.32,0,0,0-8.53,1,.89.89,0,0,0,1.78,0,2.56,2.56,0,0,1,3.17-2.5,2.48,2.48,0,0,1,1.87,1.88A2.52,2.52,0,0,1,20.74,46l0,0a10.26,10.26,0,0,0-1,1.2,4,4,0,0,1,2.47-.18A4.34,4.34,0,0,0,23.08,43.27ZM18.87,53.92a.89.89,0,0,0,.89-.89v-.61a5.86,5.86,0,0,1,.09-1H18.07a8.74,8.74,0,0,0-.07,1V53A.86.86,0,0,0,18.87,53.92Zm.14.84a1,1,0,0,0-1,.94,1,1,0,0,0,1,1,.94.94,0,0,0,.93-1A.92.92,0,0,0,19,54.76Z"/><path class="cls-4" d="M15.24,44.18a4.36,4.36,0,0,1,1.63-3.39A4.18,4.18,0,0,1,18.65,40a4.19,4.19,0,0,0-2.47.93,4.26,4.26,0,0,0-1.63,3.39.89.89,0,0,0,.89.89.81.81,0,0,0,.47-.13A.87.87,0,0,1,15.24,44.18Z"/><path class="cls-4" d="M21.44,45.94a2.53,2.53,0,0,0,.62-2.36,2.5,2.5,0,0,0-1.87-1.87,2.55,2.55,0,0,0-1.29,0,2.22,2.22,0,0,1,.57.07,2.48,2.48,0,0,1,1.88,1.87A2.53,2.53,0,0,1,20.72,46l0,0a9.59,9.59,0,0,0-1,1.21c.22-.07.49-.14.8-.21A9.1,9.1,0,0,1,21.41,46S21.41,45.94,21.44,45.94Z"/><path class="cls-4" d="M18.87,53.92a.82.82,0,0,0,.47-.14.88.88,0,0,1-.65-.84v-.61a7.28,7.28,0,0,1,.07-.93h-.69a8.74,8.74,0,0,0-.07,1V53A.86.86,0,0,0,18.87,53.92Z"/><path class="cls-4" d="M18.76,55.61a.92.92,0,0,1,.49-.82.58.58,0,0,0-.24,0,1,1,0,0,0-1,.94,1,1,0,0,0,1,1,.78.78,0,0,0,.46-.14A.92.92,0,0,1,18.76,55.61Z"/><path class="cls-4" d="M21.3,46.94a1.77,1.77,0,0,1,.87.14,1.81,1.81,0,0,0,.18-.23A4.81,4.81,0,0,0,21.3,46.94Z"/><path class="cls-5" d="M18.45,46.92,20.72,46l0,0a9.59,9.59,0,0,0-1,1.21,3.86,3.86,0,0,1,2.47-.18.53.53,0,0,1,.27.33A2.27,2.27,0,0,1,22,48.5l-.31,1.43a1.47,1.47,0,0,1-1.47,1.47H16.71V49h.69l.43-1.4A1,1,0,0,1,18.45,46.92Z"/><path class="cls-13" d="M18.05,51.4s-.45,1.11-2.83,2.14a20.64,20.64,0,0,1-5.84,1.2v-1c3.52,0,4.77-.65,5.26-1s.82-.92,1-.94l1.07-.09v-.35h1.34Z"/><path class="cls-13" d="M15.11,31.88a3.27,3.27,0,0,0,1.45,1.67,2.74,2.74,0,0,1-1.19-.62A1.28,1.28,0,0,1,15.11,31.88Z"/><path class="cls-13" d="M7,45.52a.71.71,0,0,0,0,.2l0,0A.27.27,0,0,1,7,45.52Z"/><path class="cls-13" d="M10.18,39.61,9.6,48.32H9.38V41.53a5.42,5.42,0,0,0-2.3,3.12A8.4,8.4,0,0,1,10.18,39.61Z"/><path class="cls-13" d="M27.94,46.92a3.26,3.26,0,0,0,.54-2.12c-.2-2.09-3.37-3.27-3.37-3.27l.6-2.47s3.59,2.65,3.5,5.12A3.92,3.92,0,0,1,27.94,46.92Z"/><path class="cls-13" d="M25.36,59.89l-13.91.18,0-.69H25.27Z"/><path class="cls-9" d="M17.09,28.47a1.29,1.29,0,0,0,.8,0s-.09.52-.4.49S17.09,28.47,17.09,28.47Z"/><path class="cls-9" d="M22.13,30.39c-.29.33-1.72.2-1.72.2v.51a2.47,2.47,0,0,1-1.31-.78A23.32,23.32,0,0,0,22.13,30.39Z"/><path class="cls-12" d="M19.74,93.89h-6.3l0-.69h6.66A.41.41,0,0,1,19.74,93.89Z"/><path class="cls-12" d="M23.35,93.42c-.24.29-.69.31-1.47.11A7,7,0,0,1,19.68,92c-.92-.84-1.72-1.74-1.72-1.74l.13-.64a23.21,23.21,0,0,0,2.72,2.83C21.66,93.08,22.59,93.66,23.35,93.42Z"/><path class="cls-13" d="M25.27,56.5s-2.54.29-4.95.49a34.45,34.45,0,0,1-4,.13,47.11,47.11,0,0,0,6,0c2.68-.2,2.9-.26,2.9-.26V56.5Z"/><path class="cls-15" d="M98.9,32c-1-2.32-3.28-2.65-5.51-2.81h-1v-.27a11.69,11.69,0,0,0,3-7c0-2.57-2.23-3.17-3.06-3.41a.69.69,0,0,1-.13-.05s0,0,0-.09a2.88,2.88,0,0,0-1.56-1.47,6.13,6.13,0,0,0-3.21.11h0c-.15,0-.42-.17-.62-.24A3.85,3.85,0,0,0,84,16.26,3.21,3.21,0,0,0,82,19.07,3.13,3.13,0,0,0,83.32,22a14.66,14.66,0,0,0-.47,3.39,3.8,3.8,0,0,0-1.33,2.87,2.53,2.53,0,0,0,.2,1.09,11,11,0,0,0-6,2.77l-5,5.63a1.7,1.7,0,0,0-.29-.55,2,2,0,0,0-1.25-.76,2.76,2.76,0,0,0-.44-1.11A2.78,2.78,0,0,0,69,34.15v-.6a5.71,5.71,0,0,1,1.73-3.94,6,6,0,0,0-2.92-10,5.93,5.93,0,0,0-2.87.05,2.82,2.82,0,0,0-.6.2,3.37,3.37,0,0,0-.54.24l0,0c-.18.09-.36.2-.51.29a0,0,0,0,0,0,0c-.18.11-.33.22-.49.33a6,6,0,0,0-2.25,4.68A2.57,2.57,0,0,0,63.06,28a3.23,3.23,0,0,0,.47-.05,1,1,0,0,0,.27-.07.62.62,0,0,1,.16,0,2.49,2.49,0,0,0,.33-.16l0,0a2.57,2.57,0,0,0,1.27-2.2.9.9,0,0,1,.34-.7.82.82,0,0,1,.35-.17l.16,0h.13s.09,0,.12,0a.86.86,0,0,1,.62.62.89.89,0,0,1-.22.85,10.85,10.85,0,0,0-3.19,7.53v.6a2.59,2.59,0,0,0,.42,1.4A2.59,2.59,0,0,0,64,36.9a2.46,2.46,0,0,0,.07.6,2.8,2.8,0,0,0-.72.6c-.13.15-.38.42-2,3.79l-.69-3.28.51-.33-.35-1.21A6.89,6.89,0,0,0,60,35.31l-.18-.87,0,.05a3.67,3.67,0,0,0-.67-1.83c-.05-.09-.11-.2-.14-.24l.2-.27a3.57,3.57,0,0,0,.92-2.47,3.18,3.18,0,0,0-.76-1.85,1.15,1.15,0,0,1-.27-.49,1,1,0,0,1,.05-.56,3.75,3.75,0,0,0,.15-1.47c-.24-2.5-3.14-4.75-6.21-4.86-2.3-.09-6.07,1-6.91,3.57a5,5,0,0,0-.2,2,1.3,1.3,0,0,1-.11.8,2.37,2.37,0,0,1-.43.58,4.49,4.49,0,0,0-1,1.63,2.84,2.84,0,0,0,.38,2.58,3.65,3.65,0,0,0-.67.65,4.48,4.48,0,0,0-.85,1.67l-1,.6v-.22l-.71.73a24,24,0,0,0-2.32,2l-.87.91.16.27A44.29,44.29,0,0,0,34.49,43c-1.2-4-6.86-10.38-8.17-11.3a9.84,9.84,0,0,0-2.41-1.05,12.51,12.51,0,0,0,.33-6.41,2.57,2.57,0,0,0,0-2.65A3.75,3.75,0,0,0,21.26,20a11.9,11.9,0,0,0-4,.22l-.09,0a3,3,0,0,0-1.36.61.67.67,0,0,1-.14.11l-.31.06a2.9,2.9,0,0,0-1.27.83,6,6,0,0,0-.76,1.31,7.59,7.59,0,0,0,.36,6.35l0,.05a5,5,0,0,0,.34.64,54.94,54.94,0,0,0-6.29,2C6.44,33,1,38.39.06,45.74-.49,50.2,2.58,54,7.64,55.3v1.4l1.07,1.07v3.5H9.78l1.74,29.61.29,4.9H19.7a2.21,2.21,0,0,0,1.38-.51,2.13,2.13,0,0,0,.33.11,3.07,3.07,0,0,0,3.17-.62A2.08,2.08,0,0,0,25,94c.49-1.21-.31-2.36-1-3.08l-.47-1.51,5-13.88a7.65,7.65,0,0,0,.35-3.79L27,59.87l-.06-.38v-2l.82-.83-.2-.89c-.05-.2-.09-.38-.13-.58,0,0,.06-.06.11-.08a2.93,2.93,0,0,0,1.31-.76,15.25,15.25,0,0,0,1.67-.58A9.71,9.71,0,0,0,34,49.15a29,29,0,0,0,3.79,3.34c1.45,1.11,2.9,2.16,3.79,2.76a1.7,1.7,0,0,0-.38,1.25c.09,1.16,1.07,1.67,2.05,1.92A30.59,30.59,0,0,0,43,62c0,3.23.33,8.2.69,13.48.29,4.28.58,8.69.71,12.37l.07,1.6h.18c0,1,.06,1.72.09,2.3s0,.82,0,1.2,0,.84,0,1.27v1.67h5.62A1.91,1.91,0,0,0,52.34,94,1.88,1.88,0,0,0,52,92.88L50.78,91l0-1.58h.22l.87-13.14.67,13.14h.18l.11,3.23,0,3.19h6.53a1.9,1.9,0,0,0,1.18-3.41L58.74,91c0-.45,0-1,.09-1.52h.36l.06-1.6c.14-3.68.43-8.07.72-12.32.35-5.3.69-10.3.69-13.53a31.93,31.93,0,0,0-1.25-8.73,3.78,3.78,0,0,0,.71.2.87.87,0,0,0,.2,0h.07c1.8.14,3.16-1.6,5-6.46.75-2,1.4-4,1.69-5,.33-.2.65-.37.94-.55a3.35,3.35,0,0,0-.34,3.07,4.78,4.78,0,0,0,.51.83,5.67,5.67,0,0,0-.13,1.24,2.55,2.55,0,0,0,1.27,2.21l.07,0a.85.85,0,0,0,.31.14l.18.06.24.07A2.51,2.51,0,0,0,71.69,49l1.07,1a10.46,10.46,0,0,0-1.23,4.86v.6A2.45,2.45,0,0,0,72,56.79a2.49,2.49,0,0,0-.34,1.29,2.63,2.63,0,0,0,1,2.1l.31.2s.07,0,.09,0a1,1,0,0,0,.27.11,1,1,0,0,0,.22.07.73.73,0,0,0,.2,0,4,4,0,0,0,.49,0,2.61,2.61,0,0,0,2.61-2.61,2.57,2.57,0,0,0-.49-1.51,2.64,2.64,0,0,0,.29-1.18v-.6a4.84,4.84,0,0,1,.06-.78,4,4,0,0,0,.92.31l-.14,4.74,2.41,31.15-1.6,1.54a2.37,2.37,0,0,0-.12,3.34,2.42,2.42,0,0,0,1.77.78H95V60.6H96.2v-16l.18,0,.6-1.34C99.19,38.43,99.9,34.29,98.9,32ZM19.21,76.89l.13-5.35.47,2.56ZM26.76,45.7h-.33c0-.38,0-.76,0-1.14a1.14,1.14,0,0,1,.34.62A1.35,1.35,0,0,1,26.76,45.7ZM45,51,40.2,46.48l2-2.12.09.15,1.47-1,1.54,6.69A5.44,5.44,0,0,0,45,51Z"/><path class="cls-3" d="M70.69,24.22A4.3,4.3,0,0,0,67.48,21a4.38,4.38,0,0,0-3.7.82,4.32,4.32,0,0,0-1.63,3.39.89.89,0,0,0,1.78,0,2.56,2.56,0,0,1,3.17-2.49A2.47,2.47,0,0,1,69,24.6,2.56,2.56,0,0,1,68.32,27a9.14,9.14,0,0,0-2.72,6.35v.6a.9.9,0,0,0,1.79,0v-.6a7.42,7.42,0,0,1,2.2-5.12A4.25,4.25,0,0,0,70.69,24.22ZM66.61,35.71a1,1,0,1,0,1,1A1,1,0,0,0,66.61,35.71Z"/><path class="cls-4" d="M66.47,34.87a1,1,0,0,0,.56-.2.89.89,0,0,1-.85-.89v-.61a9.1,9.1,0,0,1,2.72-6.35,2.5,2.5,0,0,0,.65-2.38,2.47,2.47,0,0,0-1.87-1.87,2.64,2.64,0,0,0-1.72.18,2.6,2.6,0,0,1,1.11,0A2.49,2.49,0,0,1,69,24.64,2.59,2.59,0,0,1,68.3,27a9.1,9.1,0,0,0-2.72,6.34V34A.91.91,0,0,0,66.47,34.87Z"/><path class="cls-4" d="M62.75,25a4.36,4.36,0,0,1,1.63-3.39,4.82,4.82,0,0,1,1-.6,4.46,4.46,0,0,0-1.6.8,4.32,4.32,0,0,0-1.63,3.39.89.89,0,0,0,.89.89,1,1,0,0,0,.56-.2A.88.88,0,0,1,62.75,25Z"/><path class="cls-4" d="M66.27,36.45a.91.91,0,0,1,.36-.74h0a1,1,0,0,0,0,1.92,1,1,0,0,0,.58-.2A1,1,0,0,1,66.27,36.45Z"/><path class="cls-5" d="M48.65,92.5a.61.61,0,0,1,.4-.08l.82-.09-.73-1.12.13-4.74h-3c.11,3.92.17,5,.2,6.08l1,.24a.62.62,0,0,0,.53-.08Z"/><path class="cls-6" d="M46.48,92.57c0,.45,0,.89,0,1.32h3.94a.26.26,0,0,0,.25-.25.35.35,0,0,0-.05-.13l-.78-1.18H49a.56.56,0,0,0-.4.09l-.52.29a.74.74,0,0,1-.53.08Z"/><path class="cls-5" d="M54.57,92.33l2.48.46a1.13,1.13,0,0,0,1.16-.46l-1.16-.92c.06-.75.24-4.45.24-4.45H54.42Z"/><path class="cls-6" d="M54.57,92.33l0,1.29v.24h4.88a.24.24,0,0,0,.15-.42l-1.42-1.11a1.19,1.19,0,0,1-1.16.46Z"/><path class="cls-5" d="M44.79,52.87l-1.36,1a1.08,1.08,0,0,0-.13.85,2.72,2.72,0,0,0,.58,1.05s-1,0-1,.31,1.39.64,2.39.55a18.27,18.27,0,0,1,.6-2.91Z"/><path class="cls-5" d="M65.72,40.64s-3.21,11-5.2,10.87a.16.16,0,0,1-.09,0c-1.64-.25-3-3.39-3.67-5.46.06-.36.13-.69.22-1.05.69-2.52,1.18-3.92,0-6.28l1.87-1.16,2,9.38s3.41-7.55,3.81-8c.58-.66,1.47-.37,2.08-.53s2.09-.8,2.43-.38S65.72,40.64,65.72,40.64Z"/><path class="cls-7" d="M58.85,37.56,57,38.72c1.18,2.36.69,3.74,0,6.28a8.19,8.19,0,0,0-.22,1,15.15,15.15,0,0,0-.11,4.15H47.06l-2.18-9.61-2,1.34-.15-.29-.16-.24-1.87-3.21-.16-.25a20,20,0,0,1,4.28-3.21,10.55,10.55,0,0,1,4.55-1.38,2.18,2.18,0,0,0,4.19,0,6.09,6.09,0,0,1,4.52,1.9,5.69,5.69,0,0,1,1.25,2Z"/><path class="cls-6" d="M59,61.67c0,5.75-1.12,17.53-1.41,25.78H54.19l-1.4-27.9H51.36l-1.85,27.9H46.13c-.29-8.27-1.41-20-1.41-25.78a30.84,30.84,0,0,1,.27-4,29.27,29.27,0,0,1,.8-3.92,25.39,25.39,0,0,1,1.27-3.61h9.59A29,29,0,0,1,59,61.67Z"/><path class="cls-8" d="M58.14,34.56a4,4,0,0,1-.09.69,6,6,0,0,0-4.5-1.9,1.93,1.93,0,0,1-.36-1,5.21,5.21,0,0,0,2.14-.52,8.31,8.31,0,0,0,0-7.1,3.48,3.48,0,0,1-2,2.4,3,3,0,0,0-1.31,1.76s-.27-1.13-1-1.07-.51,1.63-.51,1.63l.58.73a3,3,0,0,1-1.74,3.23,10.7,10.7,0,0,0-4.55,1.39,3,3,0,0,1,.63-1.67c.49-.61.89-.54,1.22-1.07.51-.9-1-1.61-.62-2.68s.82-1,1.34-2c.62-1.23,0-1.83.42-3,.49-1.54,3.39-2.48,5.26-2.41,2.27.07,4.43,1.74,4.59,3.34.07.8-.4,1.16-.18,2.21s.91,1.22,1,2.09c.07,1.21-1.16,1.47-1.11,2.7C57.36,33.2,58.14,33.44,58.14,34.56Z"/><path class="cls-5" d="M38.44,46.9a.76.76,0,0,1-.27-.58.84.84,0,0,1,.25-.65l4.12-4.3-1.87-3.18c-1.41,1.45-6.51,6.86-6.15,8.42.42,1.83,8.84,7.53,8.84,7.53l1.43-1.27Z"/><path class="cls-5" d="M55.33,31.79s0,.09-.24.2a5.58,5.58,0,0,1-1.59.36,5.8,5.8,0,0,0,0,1,2.18,2.18,0,0,1-4.19,0,3,3,0,0,0,1.74-2.49,2.7,2.7,0,0,0,0-.74s-.42,0-.55-.73c-.09-.42-.25-1.56.51-1.63s1,1.07,1,1.07a3,3,0,0,1,1.31-1.76,3.48,3.48,0,0,0,2-2.4A8.29,8.29,0,0,1,55.33,31.79Z"/><path class="cls-9" d="M51.63,30.12a2.62,2.62,0,0,1-.53.74,2.68,2.68,0,0,0,0-.74A1.08,1.08,0,0,0,51.63,30.12Z"/><path class="cls-9" d="M53.55,33.35c-.51-.09-.87-1.16-.87-1.16a7.35,7.35,0,0,0,2.41-.2,5.58,5.58,0,0,1-1.59.36A5.65,5.65,0,0,0,53.55,33.35Z"/><path class="cls-9" d="M42.54,41.4l-4.12,4.3a.85.85,0,0,0-.25.64.61.61,0,0,1-.07-.56c.27-.49,3.82-4.23,3.84-4.38s-1.18-3-1.25-3.19Z"/><path class="cls-9" d="M60.43,51.51c-1.64-.24-3-3.39-3.67-5.46.06-.35.13-.69.22-1,.69-2.51,1.18-3.92,0-6.28l1.87-1.16c-.09.07-1.36,1.21-1.4,1.32a30,30,0,0,1,.47,3.18C58,44.18,58.32,49.17,60.43,51.51Z"/><path class="cls-4" d="M48.62,47.77a24.23,24.23,0,0,1,0,2.43,15.62,15.62,0,0,1-.84,4.41c-1,2.74-1.47,10.42-.92,15.84.4,4,.45,12.65.43,17H46.13c-.29-8.27-1.41-20-1.41-25.78a30.56,30.56,0,0,1,.27-4,28.63,28.63,0,0,1,.8-3.92,25.39,25.39,0,0,1,1.27-3.61l-2.18-9.61-2,1.34-.15-.29,3.1-2.58a30.94,30.94,0,0,0,1.56,4A7.7,7.7,0,0,0,50,44.74,5.63,5.63,0,0,0,48.62,47.77Z"/><path class="cls-8" d="M95.44,42.44,91.32,41.2c-.27.53-.67,1.31-1.34,1.24,0,0,0,0-.06,0-.78-.58-2.37-8.56-2.79-10.81a2.68,2.68,0,0,0,1.85,0,2.09,2.09,0,0,0,1.25-1h3c2.41.16,3.52.53,4.08,1.8C98.14,34.2,97.47,38,95.44,42.44Z"/><path class="cls-8" d="M93.26,90.57v3.32H87.38a.72.72,0,0,1-.72-.72v-.06a.78.78,0,0,1,.23-.45l2.2-2.09Z"/><path class="cls-6" d="M93.26,58.71V90.54H89.09s-1.94-25-2.38-30.67h-.92V90.54H81.63L79.18,58.71Z"/><path class="cls-8" d="M94.51,42.78V58.73H79.18l.55-19.12-2.78,2-.49-.44-.09-.07L72.91,38l-.15-.2,4.12-4.63c2.21-2,4.48-2.43,7.42-2.57a3.91,3.91,0,0,0,.62,1.19c.61.69.58,6,.83,7.75.45,3.32,1.87,7.06,3.85,7.28a1.78,1.78,0,0,0,1.1-.22C91.79,46.05,92.61,43.47,94.51,42.78Z"/><path class="cls-10" d="M94.51,42.78V58.73H89.6V46.88a1.86,1.86,0,0,0,1.1-.23C91.79,46.05,92.61,43.47,94.51,42.78Z"/><path class="cls-6" d="M93.71,21.63a10,10,0,0,1-3,6.33c0-.58,0-1.18,0-1.71l.45-.41a1.27,1.27,0,0,0,.38-1.18c-.07-.33-.22-.64-.54-.66-.69-.07-.62,1.76-1.18,1.89s0-2,0-2l-.51-.69c0-.06,0-.13,0-.2A1.5,1.5,0,0,0,88,21.52a24.72,24.72,0,0,1-2.62-.6,4.92,4.92,0,0,1-1-.38,1.65,1.65,0,0,1,.09-2.87c.84-.27,2.16,1,3.07.76a5.36,5.36,0,0,1,2.48-.21c.64.23.57,1.21,1.38,1.5S93.71,20.1,93.71,21.63Z"/><path class="cls-5" d="M91.12,25.84l-.45.41c0,.53,0,1.13,0,1.71,0,1,.06,2.83.06,2.83a3.27,3.27,0,0,1-1.6.85,4.69,4.69,0,0,1-1.38.06,2.34,2.34,0,0,1-.65-.13C87.06,31.19,87,31,87,31s.33-3.23.33-3.34a2.35,2.35,0,0,0-1.29-1.29h0a1.35,1.35,0,0,0-.34-.11h0a2.44,2.44,0,0,0-.73-.09,1.88,1.88,0,0,0-.36,0,12.11,12.11,0,0,1,.8-5.28,22,22,0,0,0,2.63.6A1.5,1.5,0,0,1,89.27,23a.65.65,0,0,1,0,.2l.51.69s-.56,2.16,0,2,.49-2,1.18-1.89c.31,0,.47.33.54.66A1.26,1.26,0,0,1,91.12,25.84Z"/><path class="cls-8" d="M85.82,90.57v3.32H79.93a.73.73,0,0,1-.71-.78.77.77,0,0,1,.22-.45l2.19-2.09Z"/><path class="cls-5" d="M79.47,48.41l-.12,3.9c-1,.27-2,0-2-.29s1.21-.51,1.14-.8-.6-.16-1.11-.09a1.17,1.17,0,0,1-1.12-.53s0,0,0-.05l-.25-.44s-.37-.32-1-.81c-.89-.73-2.22-1.89-3.41-3a2.58,2.58,0,0,1,1-1.91,2.72,2.72,0,0,1,1.27-.54,24.27,24.27,0,0,0,2.65,3.59c.23.18.45.36.72.54a2.74,2.74,0,0,1,1-.14A2.39,2.39,0,0,1,79.47,48.41Z"/><path class="cls-5" d="M75.92,40.73l-.49.47-.89.86A4.28,4.28,0,0,0,71.4,43a4.21,4.21,0,0,0-1.32,1.78,5.2,5.2,0,0,1-.84-1.2c-.69-1.41,3.12-5,3.63-5.46,0-.05.07-.05.07-.05Z"/><path class="cls-3" d="M75.92,50.08l-1-.8a8.8,8.8,0,0,0-1.74,5.19v.61a.9.9,0,0,0,1.79,0v-.61a7,7,0,0,1,1.22-3.9s0,0,0,0Zm2.39-4.74a4.29,4.29,0,0,0-3.12-3.19l-.09,0a4.29,4.29,0,0,0-3.7.83,4.15,4.15,0,0,0-1.32,1.78,4.34,4.34,0,0,0-.31,1.6.89.89,0,0,0,1.78,0v-.09a2.57,2.57,0,0,1,1-1.91,2.57,2.57,0,0,1,2.21-.49,2.5,2.5,0,0,1,1.87,1.87,2.64,2.64,0,0,1-.16,1.67,8.39,8.39,0,0,0,.72.53,2.85,2.85,0,0,1,1-.13A4.15,4.15,0,0,0,78.31,45.34ZM74.25,56.81a1,1,0,0,0-1,1,1,1,0,0,0,1.9,0A1,1,0,0,0,74.25,56.81Z"/><path class="cls-4" d="M74.25,56.81h-.07a1,1,0,0,1,.38.76.94.94,0,0,1-.89.94,1,1,0,0,0,.58.2.93.93,0,0,0,.94-.94A1,1,0,0,0,74.25,56.81Z"/><path class="cls-4" d="M74.54,43.82a2.63,2.63,0,0,0-1.38-.2,2.36,2.36,0,0,0-1.27.54,2.55,2.55,0,0,0-1,1.91v.09a.86.86,0,0,1-.8.87.93.93,0,0,0,.56.2.89.89,0,0,0,.89-.89v-.09a2.54,2.54,0,0,1,1-1.91,2.76,2.76,0,0,1,1.27-.54A3.11,3.11,0,0,1,74.54,43.82Z"/><path class="cls-4" d="M78.31,45.34a4.29,4.29,0,0,0-3.12-3.19l-.09,0a.1.1,0,0,1-.07,0,4.33,4.33,0,0,1,2.52,5.48,2.92,2.92,0,0,0-.76,0l.36.27a2.62,2.62,0,0,1,1-.13A4.08,4.08,0,0,0,78.31,45.34Z"/><path class="cls-4" d="M75.92,50.08l-1-.8-.15.23c.31.24.49.4.49.4l.24.44s0,0,0,0a7,7,0,0,0-1.22,3.9v.6a.87.87,0,0,1-.8.87.92.92,0,0,0,.55.2.89.89,0,0,0,.89-.89v-.61a7,7,0,0,1,1.23-3.9s0,0,0,0Z"/><path class="cls-9" d="M87.78,31.73a2.73,2.73,0,0,1-.65-.14C87.06,31.21,87,31,87,31s.33-3.23.33-3.34a2.35,2.35,0,0,0-1.29-1.29,3.57,3.57,0,0,1,1.78,1.16C88.09,27.92,87.89,30.43,87.78,31.73Z"/><path class="cls-9" d="M75.92,40.73l-.49.47c-.49-.61-1.76-2.12-2.56-3.12,0,0,.07,0,.07,0Z"/><path class="cls-5" d="M94.93,42.29c-.07.11-.13.26-.22.42a9.8,9.8,0,0,1-4,3.92c-2.52,1.34-4.84-2.85-5.35-6.77-.22-1.76.2-7.38-.43-8.07a3.15,3.15,0,0,1-.62-1.18,3.06,3.06,0,0,1-.13-1.71c.13-.36.51-1.07.13-1.23s-.49,1-1,.85c-.27-.07-.14-2,1.27-2.34a2.11,2.11,0,0,1,.35-.05,2.57,2.57,0,0,1,2.43,1.52C87.33,27.76,87,31,87,31l.11.58C87.55,33.89,90,42.42,90,42.42s.63-.51,1.09-1a3.23,3.23,0,0,0,.25-.29v0Z"/><path class="cls-10" d="M90.87,41.06l.45.14c-.27.53-.67,1.31-1.34,1.24,0,0,0,0-.06,0A23.55,23.55,0,0,1,91,37.74a4.88,4.88,0,0,1,1.72-2.2Z"/><path class="cls-9" d="M94.93,42.29c-.07.11-.13.26-.22.42l-3.66-1.25a3.23,3.23,0,0,0,.25-.29v0Z"/><path class="cls-10" d="M93.26,58.71V90.57H92L91,59.29l-11.83-.58Z"/><path class="cls-10" d="M85.82,59.89V90.57H84.61l-.26-30.68Z"/><path class="cls-11" d="M79.22,93.11h6.6v.78H79.93A.73.73,0,0,1,79.22,93.11Z"/><path class="cls-11" d="M93.26,93.11v.78H87.38a.72.72,0,0,1-.72-.72v-.06Z"/><path class="cls-9" d="M90.67,26.25a1.43,1.43,0,0,1-.69.13s.2.22.34.24S90.67,26.25,90.67,26.25Z"/><path class="cls-10" d="M79.73,36.52v3.07L77,41.66l-.47-.44Z"/><path class="cls-3" d="M27.05,74.7,21.84,89.12a3.93,3.93,0,0,1-3.3-1.49l3-13.71-2.4-13H17.91L17.2,90.54a6.77,6.77,0,0,1-3.94,0l-1.79-30.5,0-.69H25.29l.09.53,2,11.87A5.61,5.61,0,0,1,27.05,74.7Z"/><path class="cls-5" d="M27.05,49.93s.69,2,.16,2.81a2.87,2.87,0,0,1-.4.46,6.83,6.83,0,0,1-1.21.92,48,48,0,0,1-.78-5.55,4.85,4.85,0,0,1,1.34,1.34h.89Z"/><path class="cls-6" d="M23.53,93.15a.72.72,0,0,1-.16.27c-.24.29-.69.31-1.47.11A7,7,0,0,1,19.7,92c-.92-.84-1.72-1.74-1.72-1.74l.14-.64.42-2a3.85,3.85,0,0,0,3.3,1.49l.75,2.47S23.73,92.59,23.53,93.15Z"/><path class="cls-5" d="M22.13,30.39c-.29.33-1.72.2-1.72.2v.62a2.3,2.3,0,0,1-4.59.05V29.5c1.31,0,1.25-1,1.25-1a1.6,1.6,0,0,1-.78-1.16c-.05-.73.8-1.29,1.13-1.15s.23,2,.85,1.82c.18,0,.22-.8.22-1.22a.62.62,0,0,1,.2-.47l.21-.2a.85.85,0,0,0,.17-.29l.38-1.25a5.55,5.55,0,0,0,2.94-1A10,10,0,0,1,22.13,30.39Z"/><path class="cls-6" d="M19.74,93.89h-6.3l0-.69-.15-2.63a6.77,6.77,0,0,0,3.94,0l2.07,1.92.76.69,0,0A.42.42,0,0,1,19.74,93.89Z"/><path class="cls-12" d="M33.07,43.71c-.56-3.27-6.46-10.09-7.67-10.91-1-.74-4.23-1.41-5-1.56a2.31,2.31,0,0,1-4.59,0c-1.18.33-6.3,1.76-7.2,2.25s-6,5.64-6.84,12.23c-.51,4.12,2.94,7.24,7.6,8v2.05l1.07,1.07V59.4H25.31V56.52l.67-.66c-.13-.58-.24-1.14-.33-1.7a45.65,45.65,0,0,1-.78-5.55,30.12,30.12,0,0,1,.27-7.06s3.18,1.16,3.36,3.28A3.34,3.34,0,0,1,28,46.94a5.43,5.43,0,0,1-1.3,1.41v.95l-.49.65h.89s.69,2,.16,2.81a3.44,3.44,0,0,1-.4.47,1.28,1.28,0,0,0,1.11-.65,11.73,11.73,0,0,0,1.9-.62C30.57,51.58,33.76,47.79,33.07,43.71ZM9.38,48.32a2.92,2.92,0,0,1-2.07-1.53A3.3,3.3,0,0,1,7,45.72c0-.07,0-.14,0-.2a2.94,2.94,0,0,1,.06-.85,5.42,5.42,0,0,1,2.3-3.12ZM19,56.66a1,1,0,0,1-1-1,.95.95,0,0,1,1.89,0A1,1,0,0,1,19,56.66Zm3.18-9.16a12,12,0,0,1-.51,1.69v.74a1.47,1.47,0,0,1-1.47,1.47h-.36a8.78,8.78,0,0,0-.09,1V53A.89.89,0,0,1,18,53v-.61a7,7,0,0,1,.07-1H16.71V49h.69l.43-1.4a1,1,0,0,1,.62-.67L20.72,46a2.54,2.54,0,0,0-1.25-4.23,2.56,2.56,0,0,0-3.16,2.49.89.89,0,0,1-1.78,0,4.35,4.35,0,0,1,1.62-3.38,4.33,4.33,0,0,1,6.91,2.38,4.36,4.36,0,0,1-.91,3.81C22.3,47.14,22.24,47.3,22.19,47.5Z"/><path class="cls-13" d="M16.71,49v-.26h-.93a5.35,5.35,0,0,0-.54-.25c-.2-.09-4.23,0-4.23,0s3.87-.29,4.59-.24a3.22,3.22,0,0,1,1.56.49,1,1,0,0,1,.18.26Z"/><path class="cls-14" d="M22.42,23.57a5.62,5.62,0,0,1-3,1l-.37,1.25a.55.55,0,0,1-.18.29l-.2.2a.63.63,0,0,0-.2.47c0,.42-.05,1.18-.23,1.23-.64.17-.51-1.7-.84-1.83s-1.18.42-1.14,1.16a1.63,1.63,0,0,0,.78,1.16s.07,1.09-1.25,1c-.15,0-.53-.82-.58-.94a5.94,5.94,0,0,1-.31-5,4,4,0,0,1,.49-.89.94.94,0,0,1,.49-.32,4.68,4.68,0,0,0,.67-.11c.16-.06.18-.29.33-.4a1.87,1.87,0,0,1,.76-.27,10.57,10.57,0,0,1,3.41-.2c.56.07,1.41.23,1.72.76A1,1,0,0,1,22.42,23.57Z"/><path class="cls-3" d="M23.08,43.27a4.32,4.32,0,0,0-8.53,1,.89.89,0,0,0,1.78,0,2.56,2.56,0,0,1,3.17-2.5,2.48,2.48,0,0,1,1.87,1.88A2.52,2.52,0,0,1,20.74,46l0,0a10.26,10.26,0,0,0-1,1.2,4,4,0,0,1,2.47-.18A4.34,4.34,0,0,0,23.08,43.27ZM18.87,53.92a.89.89,0,0,0,.89-.89v-.61a5.86,5.86,0,0,1,.09-1H18.07a8.74,8.74,0,0,0-.07,1V53A.86.86,0,0,0,18.87,53.92Zm.14.84a1,1,0,0,0-1,.94,1,1,0,0,0,1,1,.94.94,0,0,0,.93-1A.92.92,0,0,0,19,54.76Z"/><path class="cls-4" d="M15.24,44.18a4.36,4.36,0,0,1,1.63-3.39A4.18,4.18,0,0,1,18.65,40a4.19,4.19,0,0,0-2.47.93,4.26,4.26,0,0,0-1.63,3.39.89.89,0,0,0,.89.89.81.81,0,0,0,.47-.13A.87.87,0,0,1,15.24,44.18Z"/><path class="cls-4" d="M21.44,45.94a2.53,2.53,0,0,0,.62-2.36,2.5,2.5,0,0,0-1.87-1.87,2.55,2.55,0,0,0-1.29,0,2.22,2.22,0,0,1,.57.07,2.48,2.48,0,0,1,1.88,1.87A2.53,2.53,0,0,1,20.72,46l0,0a9.59,9.59,0,0,0-1,1.21c.22-.07.49-.14.8-.21A9.1,9.1,0,0,1,21.41,46S21.41,45.94,21.44,45.94Z"/><path class="cls-4" d="M18.87,53.92a.82.82,0,0,0,.47-.14.88.88,0,0,1-.65-.84v-.61a7.28,7.28,0,0,1,.07-.93h-.69a8.74,8.74,0,0,0-.07,1V53A.86.86,0,0,0,18.87,53.92Z"/><path class="cls-4" d="M18.76,55.61a.92.92,0,0,1,.49-.82.58.58,0,0,0-.24,0,1,1,0,0,0-1,.94,1,1,0,0,0,1,1,.78.78,0,0,0,.46-.14A.92.92,0,0,1,18.76,55.61Z"/><path class="cls-4" d="M21.3,46.94a1.77,1.77,0,0,1,.87.14,1.81,1.81,0,0,0,.18-.23A4.81,4.81,0,0,0,21.3,46.94Z"/><path class="cls-5" d="M18.45,46.92,20.72,46l0,0a9.59,9.59,0,0,0-1,1.21,3.86,3.86,0,0,1,2.47-.18.53.53,0,0,1,.27.33A2.27,2.27,0,0,1,22,48.5l-.31,1.43a1.47,1.47,0,0,1-1.47,1.47H16.71V49h.69l.43-1.4A1,1,0,0,1,18.45,46.92Z"/><path class="cls-13" d="M18.05,51.4s-.45,1.11-2.83,2.14a20.64,20.64,0,0,1-5.84,1.2v-1c3.52,0,4.77-.65,5.26-1s.82-.92,1-.94l1.07-.09v-.35h1.34Z"/><path class="cls-13" d="M15.11,31.88a3.27,3.27,0,0,0,1.45,1.67,2.74,2.74,0,0,1-1.19-.62A1.28,1.28,0,0,1,15.11,31.88Z"/><path class="cls-13" d="M7,45.52a.71.71,0,0,0,0,.2l0,0A.27.27,0,0,1,7,45.52Z"/><path class="cls-13" d="M10.18,39.61,9.6,48.32H9.38V41.53a5.42,5.42,0,0,0-2.3,3.12A8.4,8.4,0,0,1,10.18,39.61Z"/><path class="cls-13" d="M27.94,46.92a3.26,3.26,0,0,0,.54-2.12c-.2-2.09-3.37-3.27-3.37-3.27l.6-2.47s3.59,2.65,3.5,5.12A3.92,3.92,0,0,1,27.94,46.92Z"/><path class="cls-13" d="M25.36,59.89l-13.91.18,0-.69H25.27Z"/><path class="cls-9" d="M17.09,28.47a1.29,1.29,0,0,0,.8,0s-.09.52-.4.49S17.09,28.47,17.09,28.47Z"/><path class="cls-9" d="M22.13,30.39c-.29.33-1.72.2-1.72.2v.51a2.47,2.47,0,0,1-1.31-.78A23.32,23.32,0,0,0,22.13,30.39Z"/><path class="cls-12" d="M19.74,93.89h-6.3l0-.69h6.66A.41.41,0,0,1,19.74,93.89Z"/><path class="cls-12" d="M23.35,93.42c-.24.29-.69.31-1.47.11A7,7,0,0,1,19.68,92c-.92-.84-1.72-1.74-1.72-1.74l.13-.64a23.21,23.21,0,0,0,2.72,2.83C21.66,93.08,22.59,93.66,23.35,93.42Z"/><path class="cls-13" d="M25.27,56.5s-2.54.29-4.95.49a34.45,34.45,0,0,1-4,.13,47.11,47.11,0,0,0,6,0c2.68-.2,2.9-.26,2.9-.26V56.5Z"/></svg>