<svg xmlns="http://www.w3.org/2000/svg" viewBox="0 0 98.26 87.29"><defs><style>.cls-1{isolation:isolate;}.cls-2{fill:#606e79;}.cls-3{fill:#561d10;}.cls-4{fill:#ffa47c;}.cls-5{fill:#4f2718;}.cls-6{fill:#ffbd95;}.cls-7{fill:#8d3b26;}.cls-8{fill:#002d56;}.cls-9{fill:#00233f;}.cls-10,.cls-26{fill:#99a2a9;}.cls-11{fill:#6d361a;}.cls-12{fill:#191919;}.cls-13{fill:#74a940;}.cls-14{fill:#88bd4f;}.cls-15{fill:#303030;}.cls-16{fill:#b8d1ff;}.cls-17{fill:#cee0ff;}.cls-18{fill:#3b1b1d;}.cls-19{fill:#722c1d;}.cls-20{fill:#e0f2ff;}.cls-21{fill:#e8e2d6;}.cls-22{fill:#90a4a2;}.cls-23{fill:#4b5b60;}.cls-24{fill:#c9dad8;}.cls-25{fill:#424249;}.cls-26{mix-blend-mode:soft-light;}.cls-27{fill:#79858e;}.cls-28{fill:#b9b9bd;mix-blend-mode:multiply;}.cls-29{fill:#8e8e8e;}.cls-30,.cls-31{fill:#757575;}.cls-30{opacity:0.5;}</style></defs><title>Mesa de trabajo 4</title><g class="cls-1"><g id="Background"><polygon class="cls-2" points="44.95 32.49 34.01 44.46 35.45 20.09 44.41 17.44 44.95 32.49"/><path class="cls-3" d="M44.72,15a7.41,7.41,0,0,0-3.31-1,8.56,8.56,0,0,0-3.42.15l-.3-3.68.86-3.58,5.24.91.93,3.88Z"/><path class="cls-4" d="M38.24,69.36a4,4,0,0,1-.62,1.6,1.37,1.37,0,0,0,0,1.25c.53.5,1.14.32,1.78.72s1.61,1.83,2.15,2,1.77.07,1.84-.18-1.21-1.2-1.21-1.2c-1.94-2.38-2.16-3.62-2.16-3.62A12.49,12.49,0,0,0,38.24,69.36Z"/><path class="cls-5" d="M42.22,73.51s.37.31.31.4-.64.09-.79,0a14.91,14.91,0,0,1-3.42-2.54,2,2,0,0,1-.43-1,1.57,1.57,0,0,0-.45,1.31,2,2,0,0,0,.22.48,15,15,0,0,0,1.59.94c.64.4,1.53,1.83,2.07,2s2.37.1,2.44-.15S42.82,73.92,42.22,73.51Z"/><path class="cls-5" d="M37.43,71.62s.38,1,.49,1.38a11.33,11.33,0,0,1,.29,1.64h.24s-.31-2.11.8-1.48C39.6,73.35,37.43,71.62,37.43,71.62Z"/><path class="cls-4" d="M42.86,54.31c-1.81.94-3.2,4.4-3.54,5.78s-1,9.22-1.16,9.71S40,70.29,40,70a99.49,99.49,0,0,1,4-10.53c.33-.68,1.72-3.85,1.82-4.17C46.41,53.65,43.9,53.77,42.86,54.31Z"/><path class="cls-4" d="M53.44,41.26a5.57,5.57,0,0,1,0,.94,3,3,0,0,1-.26.61.7.7,0,0,0,0,.52c.14.11.31-.13.37-.27a4.38,4.38,0,0,0,.28-.71,4.17,4.17,0,0,0,.15-.93C53.94,41.25,53.44,41.26,53.44,41.26Z"/><path class="cls-4" d="M53.48,41a5.5,5.5,0,0,1-.24.84c-.09.15-.22.17-.39.3s-.32.3-.28.46.28,0,.41-.05a1.49,1.49,0,0,0,.55-.48,3.61,3.61,0,0,0,.39-.79C53.93,41.16,53.48,41,53.48,41Z"/><path class="cls-4" d="M53.46,40.92a4.42,4.42,0,0,1-.33.66c-.1.12-.2.11-.37.19s-.31.2-.3.34.23.06.35,0a1.2,1.2,0,0,0,.53-.31,3.6,3.6,0,0,0,.44-.59C53.81,41.1,53.46,40.92,53.46,40.92Z"/><path class="cls-6" d="M51.89,42.6c.07.09.3-.05.44-.23a1.36,1.36,0,0,0,.12-.89c-.05-.22,0-.57.15-.6a1.37,1.37,0,0,1,.86.43,2.79,2.79,0,0,1,.42.91,3.75,3.75,0,0,1-.22.83,1.6,1.6,0,0,0-.13.61c0,.15.12.17.2.2s.13-.31.3-.57a6.16,6.16,0,0,0,.47-1,12.61,12.61,0,0,0-.2-1.28c-.06-.28-1-1.45-1-1.56s-.9-2.08-.9-2.08l-1.56.39a9.27,9.27,0,0,1,.86,1.63,5.36,5.36,0,0,1-.11.85,3.18,3.18,0,0,0,.23,1.33C52,42,51.79,42.47,51.89,42.6Z"/><path class="cls-7" d="M36.23,68.57a3.38,3.38,0,0,1-.12,1.49c-.25.54-1.18,1.67-1.62,1.54s-.93-1.38-1-1.57a6.55,6.55,0,0,1,.42-3.2Z"/><path class="cls-4" d="M45.12,18c1-.13,2,2.75,2.38,5.92.6,5.51,1.6,7.21-.07,7.58s-1.87-1.89-3-6.51C43.53,21.33,43.13,18.21,45.12,18Z"/><path class="cls-6" d="M32.58,16.54c.49-.73,2.84-.75,3.72-.85a22,22,0,0,1,3.45.25,23.3,23.3,0,0,1,3.32.94c.8.4,3,1.22,3.21,2.08.32,1.3-4.56,7.3-2.92,11.53.54,1.4,3.72,5.11,3.74,6.61,0,1.84-5.41,4.44-5.41,4.44l-.34.09-.33.09s-6,.46-6.9-1.14c-.74-1.31.75-7.84.56-9.64C34.2,26.3,31.83,17.65,32.58,16.54Z"/><path class="cls-4" d="M47.1,37.43c.76,1.17.9,3.37.79,6.26A73.73,73.73,0,0,1,46.28,54c-.53,2.58-3.05,2.66-3.58.68-.15-.54-1.45-11.61-1.41-12.87s0-3.55.81-5C42.69,35.75,46,35.68,47.1,37.43Z"/><path class="cls-6" d="M38.15,14.32a16.45,16.45,0,0,0,.79-3.14l1.6.28,1.6.29A16,16,0,0,0,41.81,15a6.12,6.12,0,0,0,1.26,1.91l-3.38-.59-3.39-.6A6.23,6.23,0,0,0,38.15,14.32Z"/><path class="cls-6" d="M46.9,29.22c.83-.29,2.46.69,3.56,3.29,1.28,3,3.18,7.26,2.47,7.6-.33.16-.77-.11-1.09-.74a46.13,46.13,0,0,0-3.69-4.94C46.2,31.79,45.29,29.8,46.9,29.22Z"/><path class="cls-4" d="M38.15,14.32l.45-1.44c.11-.46.2-.93.26-1.26h0l1.54-.18.14,0,1.6.29A16,16,0,0,0,41.81,15a6.12,6.12,0,0,0,1.26,1.91S41,16,40.59,15.73Z"/><path class="cls-6" d="M44.32,10.05c-.45,2.51-3,4.17-4.24,3.94s-2.58-2.57-2.37-5.15,2-3.91,3.91-3.57S44.76,7.54,44.32,10.05Z"/><path class="cls-7" d="M39.69,7c.26.71,1,1.15,2.48,1.3,1.1.11,1.78,1.64,1.76,2.25,0,.23.79,4.48.79,4.48S46,9.63,44,6.7s-4.68-1.34-4.7-1.12A5.84,5.84,0,0,0,39.69,7Z"/><path class="cls-7" d="M40.32,6.41s0,1.07-.92,1.25C37.69,8,38,14.16,38,14.16s-1.85-7.72,1.28-8.58C41.05,5.1,40.32,6.41,40.32,6.41Z"/><path class="cls-6" d="M36.52,66s-.25,2.73-.37,3-.88,1.26-1.28,1.1c-1.14-.47-1.2-2.81-.86-3.47.19-.39.38-.8.53-1.07a4.17,4.17,0,0,1,.75-1Z"/><path class="cls-6" d="M43.22,52.84c1.07,1,1.12,1.87-.44,4.49s-6.33,9.26-6.65,9-1.53-1.19-.91-2c.42-.52.49-1.51,1.06-3,1-2.62,2.29-5.91,2.61-6.45C39.39,54.09,41.52,51.3,43.22,52.84Z"/><path class="cls-6" d="M34,39.07c-.31,1.36.34,3.48,1.46,6.14a71.67,71.67,0,0,0,5.14,9.11c1.4,2.24,3.79,1.43,3.59-.61-.05-.56-2.72-11.39-3.2-12.55s-1.26-3.32-2.51-4.4C37.52,36,34.43,37,34,39.07Z"/><path class="cls-8" d="M44.41,17.44v6s-1.41,4.15-.87,6.2,2.79,4.39,4.08,7.23,0,12.15,0,12.15-3.45,1.11-4.54,0a2.74,2.74,0,0,0-3.38-.29c-.62.47-2.19,2-2.19,2s-3.14-5-3.81-9.78c-.53-3.78.89-8.52.61-10.44s-1.43-9.69-1.43-9.69,1.63.17,3.41.25c.53,0-1.05-5-.53-5,1.27,0,1.7,5.44,4.86,4.73,2.35-.53,2.3-4.14,2.3-4.14Z"/><path class="cls-9" d="M35.47,25.15c.69-.47,5,1,6.73.63a3.06,3.06,0,0,0,2.12-2.08c-.28.89-1.26,4.21-.79,6,.53,2.05,2.79,4.39,4.08,7.23s0,12.15,0,12.15-3.45,1.11-4.54,0L43,49l-2-5.79s3.18.92,3.13-1.85-2.77-9-3.57-10.61S34.77,25.61,35.47,25.15Z"/><path class="cls-10" d="M36.3,15.69a30.54,30.54,0,0,1,1.15,4c.29,1.63-2.64,14.94-3.13,17.71A41.22,41.22,0,0,0,34,44.46l-1.65-1.6a91.36,91.36,0,0,0,1.12-11.12c0-3.95-1.61-13.59-1.31-14.86S36.3,15.69,36.3,15.69Z"/><path class="cls-10" d="M43.37,16.88s.78,6.16.69,7.72A77.88,77.88,0,0,0,45,32.49s1.65-12.63,1.49-13.44C46.23,17.93,43.37,16.88,43.37,16.88Z"/><path class="cls-4" d="M33,16.26c.84-.31,2,1.57,2.47,3.83.87,3.94,1.86,5,.41,5.62s-1.76-1-3-4.13C31.8,19.12,31.26,16.9,33,16.26Z"/><path class="cls-4" d="M34.44,25.23c-.55-.67.84-2.69,3.46-4.37,3-1.94,7.32-4.78,7.77-4.16.61.85-2.92,3.51-5.44,6S35.56,26.63,34.44,25.23Z"/><path class="cls-4" d="M43.64,17.58a1.42,1.42,0,0,0,.42-1.33,2.26,2.26,0,0,1,.62-1.73,9.42,9.42,0,0,1,.87-1c.28-.07.18.27.27.25s.38-.13.41.16.1.24.2.27.14.28.09.4.1.18.1.34a.85.85,0,0,1-.22.47A1.65,1.65,0,0,0,46,16.67c0,.6-.06,1.55-1,1.79S43.64,17.58,43.64,17.58Z"/><path class="cls-11" d="M60.86,5.85A2.44,2.44,0,0,1,63.25,4c1.66.07,3,1.61,2.37,4-.67,2.6-.21,4.77,0,4.72s.19.64-.37.76a1.91,1.91,0,0,1-2.4-1.74A5.6,5.6,0,0,0,61.8,8.74Z"/><path class="cls-7" d="M62,70.36a.78.78,0,0,1,.46.65c0,.35,0,2.57,0,2.57a3.31,3.31,0,0,0-1,.65c-.46.41-.88,1.3-1.5,1.56a3.2,3.2,0,0,1-2,.2c-.28-.12-.18-.75.22-1.39l1.34-2.16Z"/><path class="cls-6" d="M59.94,70a8.37,8.37,0,0,1-.22,1.32,17.62,17.62,0,0,1-.87,2.64c-.29.56-.24,1,.65.71s2.3-2.54,2.56-3.5c.12-.43-.14-.89-.19-1.17C61.74,69.3,59.94,70,59.94,70Z"/><path class="cls-7" d="M71.43,73.31A3.53,3.53,0,0,1,72,74.67c0,.6-.22,2-.64,2.14S70,76,69.84,75.89a6.79,6.79,0,0,1-1.1-3Z"/><path class="cls-6" d="M70.49,70.89s1,2.51,1.06,2.82-.16,1.53-.57,1.58c-1.14.14-2.25-1.89-2.27-2.64s-.06-1.54-.06-1.54Z"/><path class="cls-12" d="M58.12,16.73c-.78-.55-3,1.48-4.78,4.1-3,4.55-4.67,5.59-3.37,6.68s2.49-.81,5.58-4.34C58,20.41,59.74,17.85,58.12,16.73Z"/><path class="cls-8" d="M56.8,35.14A6,6,0,0,0,56.17,38c.45,1.76,5.64,3.25,5.64,3.25h.35v-5.7C60.16,35.54,58.8,35.14,56.8,35.14Z"/><path class="cls-8" d="M56.41,36.93c-.66,1.21-.63,3.38-.3,6.22.45,3.86,1.72,10,1.87,10.56.72,2.5,3.18,2.39,3.56.41.1-.55,1-11.65.81-12.88a13.42,13.42,0,0,0-1.7-4.87C60,35.35,57.4,35.12,56.41,36.93Z"/><path class="cls-6" d="M68.57,17.76c-.35-.8-2.18-1.15-3-1.4A21.57,21.57,0,0,0,62.16,16s-4,.4-4.88.36c-.37,0-.64,1.31-.78,1.69-.8,2.12-1.74,4.58.25,6.3.45.39.85,4.86.85,6.93a11.08,11.08,0,0,1-.8,3.84c2,0,3.36.4,5.36.4h6a36.05,36.05,0,0,1-1.44-4.24C65.55,24.93,69.11,19,68.57,17.76Z"/><path class="cls-8" d="M62.16,56.52c-.11-3.84-1.17-4.59-2.54-4.59-2.2,0-1.83,4.1-1.8,5.34S59.52,68.38,59.94,70h1.93C62.12,67.27,62.24,59.66,62.16,56.52Z"/><path class="cls-13" d="M57,16.32c1.34,0,2.11.85,1.52,3.07a15.46,15.46,0,0,1-2.87,4.85L52.25,21.4S55.73,16.33,57,16.32Z"/><path class="cls-6" d="M64,14.71a15.64,15.64,0,0,1-.23-3.18H60.55a15.64,15.64,0,0,1-.23,3.18,5.93,5.93,0,0,1-1.56,1.65h6.79A6.08,6.08,0,0,1,64,14.71Z"/><path class="cls-14" d="M68.57,17.76C68.22,17,66,16.27,65.12,16a5.27,5.27,0,0,1-4.52,1.84c-.93-.1-1.84-1.5-1.84-1.5-.49,0-1.13,0-1.48,0s-.64,1.31-.78,1.69c-.8,2.12-1.74,4.58.25,6.3.45.39.85,4.86.85,6.93a11.08,11.08,0,0,1-.8,3.84c2,0,3.36.4,5.36.4h6a36.05,36.05,0,0,1-1.44-4.24C65.55,24.93,69.11,19,68.57,17.76Z"/><path class="cls-9" d="M70.55,70.9c0-1.35-1.27-11.94-1.59-13.22s-.93-6.11-4-5.15c-1.32.41-1.59,1.37-.6,5.31.81,3.21,3.2,10.76,4.27,13.45A8.13,8.13,0,0,0,70.55,70.9Z"/><path class="cls-8" d="M62.16,35.54v5.7h.34s5.83-1.09,6.29-2.85a6.05,6.05,0,0,0-.64-2.85Z"/><path class="cls-8" d="M68.44,37c.74,1.17.84,3.34.68,6.19a102.11,102.11,0,0,1-1.28,10.19c-.56,2.54-3.5,2.57-4,.61-.14-.54-1.25-11.48-1.19-12.72s.06-3.51.86-4.93C64.11,35.23,67.35,35.21,68.44,37Z"/><path class="cls-4" d="M63.77,12.77c0-.67,0-1.24,0-1.24H60.55a15.64,15.64,0,0,1-.23,3.18,5.93,5.93,0,0,1-1.56,1.65l5-3.59Z"/><path class="cls-6" d="M64.47,9.61c0,2.52-2.09,4.58-3.38,4.6s-3-2-3.24-4.55S59.07,5.5,61,5.47,64.44,7.09,64.47,9.61Z"/><path class="cls-7" d="M60.15,7.47c.39.64,1.26.82,2.77.69,1.08-.1,1.36,1,1.45,1.6A8.26,8.26,0,0,1,64.28,11s1.61-2.15-.63-4.9c-1.55-1.91-3.78-.64-4.17-.23C59.33,6,60,7.16,60.15,7.47Z"/><path class="cls-7" d="M60.54,6.69A1.72,1.72,0,0,1,59.27,8.2a1.67,1.67,0,0,0-1.39,1.71s-1.6-3.07.81-4.13C60.23,5.11,60.57,6.35,60.54,6.69Z"/><path class="cls-13" d="M64.45,24.69c-1.62.64-3.18-.32-4.49-.23a4,4,0,0,1-4.08-1.94c-.39-.59,0-2.56,0-2.67-.47,1.62-.58,3.27.87,4.52.45.39.85,4.86.85,6.93a11.08,11.08,0,0,1-.8,3.84,28,28,0,0,1,3.36.28s-.18-1.51-.36-2.28a8.52,8.52,0,0,1,.66-4.3c.66-1.28,4.51-2.08,4.89-2.46C66.42,25.3,67.09,23.65,64.45,24.69Z"/><path class="cls-9" d="M64.82,55c-.2-1.39-.52-7.63-.93-11-.31-2.51-.94-2.79-1.24-2.77v0c-.06,1.23.91,11.42,1.15,13.25a16.83,16.83,0,0,0,.59,3.37c.81,3.21,3.2,10.76,4.27,13.45.15,0,.71-.05.92-.09l.44-.14S67.5,62.38,66.1,58.14A24.14,24.14,0,0,1,64.82,55Z"/><path class="cls-9" d="M57.15,38.86c-.1-1.58,1.89-3,2.79-3.47-1.26-.08-3.14-.25-3.14-.25-1.24,1.84-1,5.17-.69,8C56.55,47,57.79,53,58,53.67a15.5,15.5,0,0,0-.15,3.6c0,1.22,1.7,11.11,2.12,12.68l-1.25-15.6S57.29,41,57.15,38.86Z"/><path class="cls-4" d="M50.86,27.61c-.81.33-2.12-1.06-2.67-3.37-.64-2.66-1.62-6.44-.89-6.7,1-.35,2.09,2.81,3.41,5.16S52.53,26.94,50.86,27.61Z"/><path class="cls-6" d="M71.77,28.83c.84.18,1.1,2.42.23,5.12-1,3.1-2.38,7.57-3.11,7.37-1-.27-.08-4.18.19-7.4S70,28.46,71.77,28.83Z"/><path class="cls-15" d="M66.53,17.29c1-.4,2.76,2.34,3.76,5.6,1.75,5.65,3.17,7.18,1.44,8-1.57.78-2.38-1.49-4.54-6.06C65.5,21.29,64.45,18.1,66.53,17.29Z"/><path class="cls-4" d="M48.35,19.64a3.31,3.31,0,0,1,.29-1.12,3.37,3.37,0,0,0,.6-1.79,3.92,3.92,0,0,1,.29-1.58c.07-.15-.25-.21-.49,0s-.29,1.34-.46,1.36-.63-3-.85-3,0,2-.09,2.08-.54-2.08-.82-2.08.21,2.26.08,2.27S46,13.89,45.74,14s.7,1.92.53,2-.89-1-1.05-.79.7,1.2.81,1.4A10.64,10.64,0,0,0,47,18.64c.23.08.52.89.52.89Z"/><path class="cls-12" d="M50.86,27.61c-.81.33-2-.38-2.8-3.3a31.34,31.34,0,0,1-1-5.07c0-.4,1.69-.59,2,0,.73,1.45,1.15,2.06,2,3.66C52.23,25.4,52.53,26.94,50.86,27.61Z"/><path class="cls-15" d="M71.77,28.83c.84.18,1.21,2.38.34,5.08-.73,2.24-1.42,4.49-1.81,5.44-.17.43-1.94-.17-1.93-.39,0-.9.26-1.79.54-5S70,28.46,71.77,28.83Z"/><path class="cls-14" d="M65,17.9c.56-1.21,2.1-1.72,3.53.07s2,5.6,2,5.6l-4.31,1S63.89,20.37,65,17.9Z"/><path class="cls-6" d="M68.49,39.7s-.53.42-.6.5a5.74,5.74,0,0,1-.77,1c-.24.15-.41.17-.45.22s0,.58.42.41.8-.55,1-.53.16,1,.08,1.24-.79,1.52-.82,1.59-.07.26,0,.31.41,0,.48-.09.11.12.19.11l.36-.11a1.2,1.2,0,0,0,.46-.11,5.49,5.49,0,0,0,.65-.56,10.35,10.35,0,0,0,.76-1.53c0-.31-.26-2.29-.26-2.29Z"/><path class="cls-6" d="M73.13,22.7c0,1.67-1.35,2.19-3,2.11s-10-2.21-10.26-2.64,0-2.82.68-3.07,8.06.48,9.39.78S73.09,20.75,73.13,22.7Z"/><path class="cls-16" d="M72.67,21.29c-.36-.53-1.43-1.65-4-1.95-1.7-.19-5-.48-5-.48a5.93,5.93,0,0,0-.81,2.6,5.4,5.4,0,0,0,.51,2.83s6.8.77,8.09.24C71.91,24.37,73.67,22.74,72.67,21.29Z"/><path class="cls-6" d="M62.45,21.68c-.51,1.74-4,.38-5.69-.37s-6.58-3.8-6.58-3.8L51,16.3a39.31,39.31,0,0,1,9.71,2.23C61.2,18.71,63,19.91,62.45,21.68Z"/><path class="cls-12" d="M85.49,78.64s-1.16,2.13-1,2.58a2.21,2.21,0,0,0,2.15.92,8.84,8.84,0,0,0,2.42-1.34c.52-.16-.09-3-.09-3Z"/><path class="cls-6" d="M74.49,12.23S76,16.88,76.3,17c1,.47,4.3.24,5.21,1.32,1.11,1.31-1.09,10.13-1,12.49s2.22,6.35,2.57,8.6-6.74,5-7,5a13.88,13.88,0,0,1-3-2.87c-.44-.73.13-5.36-.25-6.78S70.43,28,70.27,27.68a10.17,10.17,0,0,1-1-4.42,4.83,4.83,0,0,1-.12-1.61c.3-.71,2.66-2.18,2.62-2.48s-.8-4.49-.8-4.49Z"/><path class="cls-17" d="M76.3,17l-3.46,3.58-1-1.45s-2.23-.12-2.39.33A18.92,18.92,0,0,0,69,24.71c.06.5.77,2.15,1.46,4,.41,1.08.78,2.55,1.46,4.39a27.74,27.74,0,0,1,.9,5s1.6.06,4.07-.06a37.8,37.8,0,0,0,5.88-.7c.55-.45-1.6-5.49-1.63-6s1.32-10.68,1.09-11.77a2.29,2.29,0,0,0-1.91-1.84C79.35,17.53,76.3,17,76.3,17Z"/><path class="cls-16" d="M79.81,17.63s3.1.76,1,3.55c-.92,1.2-1.78,5.66-2.73,6.26-3.41,2.13.55,8,1,8.63a3,3,0,0,1,.45,1.53l3.7-.43c1.15.22-2.13-5.89-2-7.15s1.2-9.61,1-10.47A2.54,2.54,0,0,0,79.81,17.63Z"/><polygon class="cls-4" points="71.34 16.5 75.11 13.86 75.88 16.31 74.81 17.44 71.34 16.5"/><path class="cls-6" d="M68.64,8.85c.85-1.21,3.77-2.81,5.77-1.1a4.53,4.53,0,0,1,1.24,5.33,5.25,5.25,0,0,1-2.05,2.65,10.53,10.53,0,0,1-2.93,1c-.34,0-1.1-2.27-1.19-2.24a.43.43,0,0,1-.43-.23c-.08-.27-.16-2-.27-2.14S67.68,10.24,68.64,8.85Z"/><path class="cls-7" d="M68.24,10s1.53-1.39,4.16.11c.56.32.09,2.34.24,2.47s1.43-1.72,1.42-1.5c-.16,2.25.79,3.25,1,3.22.59-.09,1.72-3.47.28-5.67a4.1,4.1,0,0,0-4.65-1.59A3.22,3.22,0,0,0,68.24,10Z"/><path class="cls-6" d="M73.14,11.8c-.06.72,0,1.64.44,1.67s.75-.54.8-1.25-.22-1.32-.61-1.35S73.19,11.08,73.14,11.8Z"/><rect class="cls-12" x="76.24" y="78.79" width="2.77" height="0.52" transform="translate(155.25 158.09) rotate(180)"/><path class="cls-12" d="M78.9,75.15a4.76,4.76,0,0,1,.64,1.94c0,.55-.28,1.7-.64,1.7a25.92,25.92,0,0,0-3.38.19c-1.08.14-1.48.76-4.24.76-.81,0-2.23,0-2.23-.38,0-1.43,2.65-.93,3.49-1.7a11.49,11.49,0,0,1,3.55-2.44A23.59,23.59,0,0,1,78.9,75.15Z"/><path class="cls-12" d="M77.58,37.41s3.7,3.68,3.86,5.29-1.38,6.76-1.93,10.8-.89,4.87-.75,5.82,1.22,4.83,1.18,7.41c0,3,.12,9.16.12,9.16a4.92,4.92,0,0,1-2.88.62,4.45,4.45,0,0,1-2.48-1s-.83-15.11-1-16.7c-.11-1-1-8.12-1.21-13.9-.08-1.86.35-7.18.35-7.94Z"/><polygon class="cls-16" points="72.75 19.59 72.83 20.62 74.67 18.74 72.75 19.59"/><polygon class="cls-16" points="72.83 20.62 72.16 19.5 71.75 20.05 72.83 20.62"/><path class="cls-15" d="M83.33,37.15a53.09,53.09,0,0,1,2.06,6c.59,2.42,1.29,14.92,1.5,16.1s.94,4.77,1.51,8.33.91,10.69.91,10.69L84.76,79S82,64,81.62,61.69s-4.94-19-4.94-19l-.56-5.37Z"/><path class="cls-12" d="M83.19,47.37c.38,1.6,1.49,12.48,1.58,13.09s2.91,17.3,3,18.07l1.5-.23S89,71.16,88.4,67.61s-1.3-7.15-1.51-8.33S86,45.6,85.39,43.18a53.09,53.09,0,0,0-2.06-6l-4,.12S82.81,45.77,83.19,47.37Z"/><path class="cls-18" d="M83.43,37.15,76,37.28c-.42,0-3.17-.26-3.17-.26l-.06,1.1s2.67.22,4,.22,7-.29,7-.29Z"/><rect class="cls-19" x="75.01" y="37.21" width="1.78" height="1.28" rx="0.6" ry="0.6" transform="translate(151.8 75.69) rotate(180)"/><polygon class="cls-12" points="73.43 19.79 71.77 19.8 72.24 21.03 73.07 21.01 73.43 19.79"/><path class="cls-12" d="M72.24,21a12.53,12.53,0,0,0-.61,6.14c.5,3.53.46,11.54.46,11.54L73,40.33l1.12-1.92S73.37,29.68,73,27.1A24.29,24.29,0,0,1,73.07,21Z"/><polygon class="cls-20" points="76.94 17.14 75.88 16.31 72.75 19.59 73.71 20.77 76.94 17.14"/><polygon class="cls-20" points="72.16 19.5 71.55 20.76 71.12 19.7 71.67 18.79 72.16 19.5"/><path class="cls-6" d="M78.52,18.66c.93-1.41,2.35-1.09,3.65-.12S90,26.79,90,27.32s-1.59,2.38-2.32,2.19-7.26-5.75-8.18-6.74S77.42,20.31,78.52,18.66Z"/><path class="cls-17" d="M78,20a3.89,3.89,0,0,0,1.24,2.88C80.6,23.94,84,26.94,84,26.94a5.89,5.89,0,0,0,2.16-1.71,5.41,5.41,0,0,0,1.19-2.66s-5.28-4.41-6.63-4.83A2.27,2.27,0,0,0,78,20Z"/><path class="cls-6" d="M89.56,26.74c1.49,1.08-1,4-2.28,5.32s-5.08,5.39-5.08,5.39l-1.55-1.3A36.14,36.14,0,0,1,86,27.34C86.3,26.93,88,25.65,89.56,26.74Z"/><path class="cls-6" d="M80.18,40.43h0a.36.36,0,0,1-.13-.49l.76-1.32a.37.37,0,0,1,.49-.14h0a.35.35,0,0,1,.13.48l-.76,1.33A.36.36,0,0,1,80.18,40.43Z"/><path class="cls-6" d="M79.57,40.15h0a.36.36,0,0,1-.13-.49l.76-1.32a.36.36,0,0,1,.49-.13h0a.35.35,0,0,1,.13.48L80.06,40A.36.36,0,0,1,79.57,40.15Z"/><path class="cls-6" d="M79,39.85h0a.36.36,0,0,1-.13-.49L79.62,38a.36.36,0,0,1,.49-.13h0a.36.36,0,0,1,.13.49l-.76,1.32A.36.36,0,0,1,79,39.85Z"/><path class="cls-6" d="M78.46,39.5h0a.36.36,0,0,1-.13-.49l.76-1.33a.36.36,0,0,1,.49-.13h0a.36.36,0,0,1,.13.49L79,39.37A.36.36,0,0,1,78.46,39.5Z"/><path class="cls-6" d="M81.54,35.05a24.64,24.64,0,0,0-2.33,1.89,15.19,15.19,0,0,0-.92,2.22s.84-.18,1.19.09,1.19,1,1.19,1a11.09,11.09,0,0,0,1.53-1.89,8,8,0,0,0,.52-1.47Z"/><path class="cls-6" d="M50.84,17.7s-1.5.39-2.07-.43A3.9,3.9,0,0,1,48.41,15c-.07-1.18-1.29-2.08-1.46-2.77s.24-.89.39-.66c.79,1.25,1.66,1.77,1.95,2.37a22.94,22.94,0,0,0,1.92,2.48Z"/><path class="cls-6" d="M49.8,17.78a3.44,3.44,0,0,1-1.52-.72c-.44-.49-.28-1.34-.59-1.8s0-.45.13-.44.47.58.68.81S50.07,16.45,49.8,17.78Z"/><path class="cls-12" d="M32.33,74.51a5.47,5.47,0,0,0-.7,2.15c-.05.6.31,1.87.7,1.87a28.79,28.79,0,0,1,3.68.21c1.17.16,1.61.85,4.62.84.88,0,2.47-.06,2.43-.42s-2.89-1-3.8-1.87A12.31,12.31,0,0,0,35.4,74.6,28,28,0,0,0,32.33,74.51Z"/><rect class="cls-12" x="32.21" y="78.53" width="3.02" height="0.57"/><path class="cls-9" d="M21.7,50.71S33,54.42,33.49,55s3.64,20.52,3.64,20.52a4.92,4.92,0,0,1-2.84.89,10.82,10.82,0,0,1-2.74,0s-3.11-12.83-3-14.52A17.71,17.71,0,0,0,28,57.59s-13.17-.65-14.07-1.43c-5.14-4.44.52-7,.52-7l7.33.51Z"/><path class="cls-16" d="M23.53,33.8c.75,1.68,2.16,1.54,3.68.75s8.43-6,8.54-7.09c.06-.57-.82-2.17-1.63-2.12S26.8,29,25.66,29.84,22.64,31.84,23.53,33.8Z"/><path class="cls-6" d="M20.38,22.49s-1.49,4.78-2,5.23C17.41,28.56,15,28.84,14,30c-1.22,1.42-.39,9-.5,11.57s-2.13,7.56-3.14,9.83,5.48,5.64,5.76,5.71a16.69,16.69,0,0,0,4.54-2c.67-.65,1.31-7,1.74-8.51s2.28-6.89,2.45-7.23A11.17,11.17,0,0,0,26,34.53a5.18,5.18,0,0,0,.14-1.75c-.32-.77-2.88-2.38-2.84-2.72s.89-4.88.89-4.88Z"/><rect class="cls-12" x="25.53" y="80.87" width="3.02" height="0.59"/><path class="cls-12" d="M25.65,76.72a5.61,5.61,0,0,0-.7,2.21c-.05.63.31,1.94.7,1.94a28.79,28.79,0,0,1,3.68.21c1.17.17,1.61.87,4.62.87.88,0,2.47-.06,2.43-.44s-2.89-1.05-3.8-1.93a12.34,12.34,0,0,0-3.86-2.78A25.77,25.77,0,0,0,25.65,76.72Z"/><path class="cls-17" d="M18.38,27.72l4,4.28.87-1.94s1.72-.62,2.4-.22.83,4.49.81,5a38.79,38.79,0,0,1-1.74,5.58c-.45,1.17-.86,2.77-1.6,4.77a54.13,54.13,0,0,0-1.44,5.69,8,8,0,0,1-4.54-.22c-3-1-6.13-1.47-6.23-1.62-.45-.63,1.68-4.47,2-7,.07-.54.23-10.11.49-11.3a2.47,2.47,0,0,1,2.08-2A17.91,17.91,0,0,0,18.38,27.72Z"/><path class="cls-16" d="M20.49,36.54C17.87,28.92,16,29,16,29l-.38-.22-.12,0a2.47,2.47,0,0,0-2.08,2c-.26,1.19-.42,10.76-.49,11.3-.31,2.52-2.44,6.36-2,7,.09.13,2.65.55,5.31,1.33l4.89.63a5.71,5.71,0,0,0,.57-.12,54.13,54.13,0,0,1,1.44-5.69c.41-1.11,1.8-5.25,2.07-6.11,0,0-1,1.8-2.15,1.56C22.14,40.48,21.94,40.74,20.49,36.54Z"/><path class="cls-8" d="M10.86,49a13.16,13.16,0,0,0-.51,4.75c.29,2.15.83,4.57,5.86,5s8.16.73,8.32.75-.39,4.32-.18,7.33.55,11,.55,11a13.43,13.43,0,0,0,3.09.35c2,0,2.64-.66,2.64-.66s1.37-18.84.89-20.4c-.81-2.64-9.24-4.8-9.55-5.27a6.7,6.7,0,0,1-.2-2.17Z"/><path class="cls-17" d="M15.54,29c-1.83.2-2.19,1.84-1.84,3.7s3.5,10,4,10.32,3.93.73,4.09-.12-2.59-8.68-3.13-10.17S17.69,28.77,15.54,29Z"/><polygon class="cls-4" points="20.61 23.59 23.87 26.58 23.57 28.27 19.82 27.93 18.85 26.83 20.16 23.32 20.61 23.59"/><path class="cls-6" d="M23.75,17.44c-1.44-.85-5.15-1.09-6.3,1.64a5.3,5.3,0,0,0,1.37,6.09,6,6,0,0,0,3.35,1.74,11.67,11.67,0,0,0,3.44-.34c.32-.2,0-2.87.09-2.88a.47.47,0,0,0,.31-.45c-.05-.31-.81-2.12-.78-2.33S25.39,18.4,23.75,17.44Z"/><path class="cls-7" d="M24.72,18.44s-2.2-.69-4.1,2.12c-.4.6,1.06,2.45,1,2.67s-2.27-1.09-2.15-.87c1.26,2.24.8,3.73.59,3.8-.63.19-3.41-2.75-3.06-5.71a4.49,4.49,0,0,1,3.87-3.88A3.62,3.62,0,0,1,24.72,18.44Z"/><path class="cls-6" d="M20.71,22.64c.4.71.75,1.72.37,1.93s-1-.19-1.41-.91-.43-1.46-.06-1.67S20.3,21.93,20.71,22.64Z"/><polygon class="cls-16" points="22.43 30.9 22.39 32 21.45 31 22.43 30.9"/><path class="cls-6" d="M33.37,27.72c1.21,1.6,4-.67,5.39-2.11s4.93-6.11,4.93-6.11l-1.23-1.41s-7.23,5.46-7.66,5.85S32.14,26.09,33.37,27.72Z"/><polygon class="cls-16" points="22.39 32 22.78 30.94 23.05 31.52 22.39 32"/><polygon class="cls-18" points="10.86 49.02 10.53 50.18 21.78 50.98 21.77 49.72 10.86 49.02"/><path class="cls-19" d="M21.13,51h-.34a.69.69,0,0,1-.68-.68h0a.69.69,0,0,1,.68-.68h.34a.68.68,0,0,1,.67.68h0A.68.68,0,0,1,21.13,51Z"/><polygon class="cls-21" points="17.87 27.8 18.85 26.83 22.43 30.9 21.66 32.05 17.87 27.8"/><ellipse class="cls-21" cx="19.26" cy="41.78" rx="2.68" ry="2.28"/><path class="cls-17" d="M22.21,41.78a2.5,2.5,0,0,1-2.68,2.28,2.5,2.5,0,0,1-2.67-2.28,2.5,2.5,0,0,1,2.67-2.28A2.5,2.5,0,0,1,22.21,41.78Z"/><path class="cls-21" d="M22.21,42.09a2.5,2.5,0,0,1-2.68,2.27,2.5,2.5,0,0,1-2.67-2.27,2.5,2.5,0,0,1,2.67-2.28A2.5,2.5,0,0,1,22.21,42.09Z"/><polygon class="cls-21" points="22.78 30.94 23.36 29.47 23.87 30.29 23.18 32 22.78 30.94"/><path class="cls-22" d="M36.61,38.33l.18-.37a.17.17,0,0,1,.23-.07h0a.16.16,0,0,1,.07.23l-.18.36a.17.17,0,0,1-.23.08h0A.17.17,0,0,1,36.61,38.33Z"/><path class="cls-23" d="M34.08,44h0c-.15-.07.06-.8.13-1l2.26-4.64a.29.29,0,0,1,.39-.14h0a.3.3,0,0,1,.14.4l-2.25,4.64C34.67,43.42,34.22,44,34.08,44Z"/><rect class="cls-22" x="36.21" y="38.74" width="0.64" height="0.3" transform="matrix(0.91, 0.41, -0.41, 0.91, 19.42, -11.65)"/><path class="cls-24" d="M35.88,40.36h0a.1.1,0,0,1-.05-.13l.73-1.55a.1.1,0,0,1,.13,0h0a.1.1,0,0,1,.05.13L36,40.31A.1.1,0,0,1,35.88,40.36Z"/><path class="cls-6" d="M17.56,42.23c-.28,2,3.87,2.22,5.9,2.23s8.67-.52,8.67-.52l-.92-1.84S21,40.5,20.45,40.47,17.85,40.21,17.56,42.23Z"/><path class="cls-6" d="M36,43.74h0a.34.34,0,0,0-.33-.34l-1.44,0a.34.34,0,0,0-.35.33h0a.33.33,0,0,0,.33.35l1.44,0A.34.34,0,0,0,36,43.74Z"/><path class="cls-6" d="M36.11,43.1h0a.34.34,0,0,0-.33-.34l-1.44,0A.34.34,0,0,0,34,43h0a.33.33,0,0,0,.33.35l1.44,0A.34.34,0,0,0,36.11,43.1Z"/><path class="cls-6" d="M36.15,42.49h0a.34.34,0,0,0-.33-.35l-1.45,0a.33.33,0,0,0-.34.32h0a.33.33,0,0,0,.32.34l1.45,0A.35.35,0,0,0,36.15,42.49Z"/><path class="cls-6" d="M36.13,41.89h0a.34.34,0,0,0-.33-.35l-1.44,0a.33.33,0,0,0-.35.32h0a.33.33,0,0,0,.33.34l1.44,0A.35.35,0,0,0,36.13,41.89Z"/><path class="cls-6" d="M31,42.17a25,25,0,0,1,2.68-1,15.12,15.12,0,0,1,2.25.36s-.58.59-.53,1,.26,1.47.26,1.47a10,10,0,0,1-2.27.3,7.74,7.74,0,0,1-1.45-.3Z"/><path class="cls-6" d="M42.1,18.59a1.8,1.8,0,0,0,.53-1.68,2.91,2.91,0,0,1,.78-2.19,13.35,13.35,0,0,1,1.09-1.21c.36-.1.24.34.34.3s.48-.15.52.21.13.3.25.35.19.35.12.5.13.23.13.43a1.17,1.17,0,0,1-.28.58A2,2,0,0,0,45,17.44c0,.76-.08,2-1.26,2.25S42.1,18.59,42.1,18.59Z"/><path class="cls-17" d="M31.87,26.32A6,6,0,0,0,33,28.77a2.07,2.07,0,0,0,1.56.67,7.94,7.94,0,0,1,.5-.72c.32-.34,1-.32.92-.61s-1.13-.57-1.76-1.39-.44-1.52-.59-1.6-.6.47-.86.58S31.83,25.64,31.87,26.32Z"/><rect class="cls-10" x="13.95" y="59.28" width="2.72" height="19.3" transform="translate(30.61 137.87) rotate(180)"/><rect class="cls-10" x="7.34" y="54.11" width="1.5" height="5.37" transform="translate(16.18 113.59) rotate(180)"/><rect class="cls-15" x="7.34" y="57.27" width="17.89" height="3.9" rx="1.4" ry="1.4" transform="translate(32.56 118.43) rotate(180)"/><rect class="cls-15" x="5.08" y="31.95" width="2.82" height="23.92" rx="1.19" ry="1.19" transform="translate(18.05 86.78) rotate(173.3)"/><path class="cls-25" d="M5.63,32.68h0a.46.46,0,0,1,.51.4L8.62,54.19a.46.46,0,0,1-.4.51h0a.45.45,0,0,1-.5-.4L5.23,33.19A.46.46,0,0,1,5.63,32.68Z"/><path class="cls-15" d="M20.71,80.83a1.58,1.58,0,1,0,1.58-1.58A1.58,1.58,0,0,0,20.71,80.83Z"/><path class="cls-15" d="M6.38,80.83A1.58,1.58,0,1,0,8,79.25,1.58,1.58,0,0,0,6.38,80.83Z"/><path class="cls-10" d="M5.87,79.91H24.74a1.34,1.34,0,0,0-1.33-1.33H7.2a1.34,1.34,0,0,0-1.33,1.33Z"/><rect class="cls-26" x="14.39" y="60.97" width="0.68" height="17.62" transform="translate(29.46 139.55) rotate(180)"/><rect class="cls-27" x="4.88" y="62.41" width="38.42" height="2.52" transform="translate(-39.59 87.76) rotate(-90)"/><rect class="cls-27" x="58.73" y="62.41" width="38.42" height="2.52" transform="translate(14.26 141.61) rotate(-90)"/><rect class="cls-27" x="23.18" y="45.07" width="55.59" height="5.46"/><polygon class="cls-28" points="79.15 48.77 22.83 49.31 22.83 47.5 79.15 47.52 79.15 48.77"/><rect class="cls-10" x="19.79" y="44.36" width="62.59" height="3.18"/><polygon class="cls-29" points="37.33 43.52 51.99 43.52 53.64 32.49 38.98 32.49 37.33 43.52"/><rect class="cls-29" x="31.69" y="43.52" width="5.64" height="0.85"/><polygon class="cls-30" points="38.98 32.49 51.98 43.52 37.33 43.52 38.98 32.49"/><rect class="cls-31" x="37.32" y="43.52" width="14.65" height="0.85" transform="translate(89.3 87.88) rotate(180)"/><path class="cls-16" d="M45.33,38.15a1,1,0,1,0,2,.45,1,1,0,1,0-2-.45Z"/></g></g></svg>