<svg xmlns="http://www.w3.org/2000/svg" viewBox="0 0 99.39 92.43"><defs><style>.cls-1{isolation:isolate;}.cls-2{fill:#606e79;}.cls-3{fill:#561d10;}.cls-4{fill:#ffa47c;}.cls-5{fill:#4f2718;}.cls-6{fill:#8d3b26;}.cls-7{fill:#ffbd95;}.cls-8{fill:#002d56;}.cls-9{fill:#00233f;}.cls-10{fill:#99a2a9;}.cls-11{fill:#191919;}.cls-12{fill:#303030;}.cls-13{fill:#cee0ff;}.cls-14{fill:#27547c;}.cls-15{fill:#b8d1ff;}.cls-16{fill:#7e0000;}.cls-17{fill:#e0f2ff;}.cls-18{fill:#5b0000;}.cls-19{fill:#74a940;}.cls-20{fill:#88bd4f;}.cls-21{fill:#3b1b1d;}.cls-22{fill:#722c1d;}.cls-23{fill:#90a4a2;}.cls-24{fill:#4b5b60;}.cls-25{fill:#c9dad8;}.cls-26{fill:#79858e;}.cls-27{fill:#b9b9bd;mix-blend-mode:multiply;}.cls-28{fill:#0e3854;}.cls-29{fill:#b5ccf9;}</style></defs><title>Mesa de trabajo 3</title><g class="cls-1"><g id="Background"><polygon class="cls-2" points="46.43 35.91 35.07 48.33 36.57 23.05 45.87 20.29 46.43 35.91"/><path class="cls-3" d="M46.19,17.77a7.68,7.68,0,0,0-3.43-1,9.11,9.11,0,0,0-3.56.16l-.31-3.83.89-3.71,5.45.94,1,4Z"/><path class="cls-4" d="M39.46,74.17a4.1,4.1,0,0,1-.64,1.67,1.41,1.41,0,0,0,0,1.3c.55.51,1.18.32,1.84.74s1.67,1.9,2.23,2,1.83.08,1.91-.19-1.26-1.24-1.26-1.24c-2-2.47-2.24-3.75-2.24-3.75A13.14,13.14,0,0,0,39.46,74.17Z"/><path class="cls-5" d="M43.59,78.48s.39.32.32.42-.66.09-.81,0a15.46,15.46,0,0,1-3.55-2.63,2.08,2.08,0,0,1-.44-1,1.66,1.66,0,0,0-.48,1.36,1.86,1.86,0,0,0,.24.51,14.42,14.42,0,0,0,1.65,1c.66.41,1.58,1.9,2.14,2s2.46.1,2.54-.17S44.22,78.91,43.59,78.48Z"/><path class="cls-5" d="M38.62,76.53s.4,1.06.51,1.42a11.48,11.48,0,0,1,.3,1.71l.25,0s-.32-2.19.84-1.53C40.88,78.31,38.62,76.53,38.62,76.53Z"/><path class="cls-4" d="M44.26,58.56c-1.87,1-3.32,4.56-3.67,6s-1,9.56-1.21,10.07,1.87.51,1.94.22A104.81,104.81,0,0,1,45.5,63.92c.35-.71,1.79-4,1.89-4.33C48,57.87,45.34,58,44.26,58.56Z"/><path class="cls-4" d="M55.24,45a5.71,5.71,0,0,1,0,1,4.42,4.42,0,0,1-.27.63.72.72,0,0,0,0,.54c.14.11.32-.13.39-.28a4.65,4.65,0,0,0,.28-.73,4.16,4.16,0,0,0,.16-1C55.76,45,55.24,45,55.24,45Z"/><path class="cls-4" d="M55.29,44.77a5.44,5.44,0,0,1-.26.88c-.09.15-.22.17-.41.31s-.32.31-.29.47.29,0,.43,0a1.6,1.6,0,0,0,.58-.49,5.1,5.1,0,0,0,.4-.82C55.75,44.9,55.29,44.77,55.29,44.77Z"/><path class="cls-4" d="M55.26,44.66a5.27,5.27,0,0,1-.34.69c-.11.12-.21.11-.39.19s-.32.21-.31.36.24.06.36,0a1.2,1.2,0,0,0,.55-.33,3.36,3.36,0,0,0,.46-.61C55.62,44.84,55.26,44.66,55.26,44.66Z"/><path class="cls-4" d="M53.64,46.41c.06.09.31,0,.45-.24a1.41,1.41,0,0,0,.12-.93c0-.23,0-.59.16-.62a1.51,1.51,0,0,1,.9.44,3.66,3.66,0,0,1,.43.95,3.52,3.52,0,0,1-.23.86,1.54,1.54,0,0,0-.14.63.26.26,0,0,0,.21.21c.09,0,.13-.32.31-.59a6.21,6.21,0,0,0,.49-1,13.2,13.2,0,0,0-.2-1.33c-.06-.3-1-1.51-1-1.63S54.2,41,54.2,41l-1.62.41a10.56,10.56,0,0,1,.9,1.68,5,5,0,0,1-.12.89,3.15,3.15,0,0,0,.24,1.37C53.72,45.8,53.53,46.27,53.64,46.41Z"/><path class="cls-6" d="M37.38,73.35a3.55,3.55,0,0,1-.13,1.55c-.26.56-1.22,1.73-1.68,1.6s-1-1.43-1-1.63A7,7,0,0,1,35,71.55Z"/><path class="cls-4" d="M46.6,20.82c1-.13,2.12,2.85,2.48,6.14.62,5.72,1.66,7.49-.08,7.88-1.58.35-1.93-2-3.12-6.76C45,24.33,44.54,21.09,46.6,20.82Z"/><path class="cls-7" d="M33.59,19.36c.51-.76,2.95-.78,3.86-.89a24.3,24.3,0,0,1,3.58.27,23.33,23.33,0,0,1,3.45,1c.82.41,3.11,1.27,3.33,2.16.34,1.34-4.73,7.57-3,12,.56,1.46,3.86,5.31,3.88,6.87,0,1.91-5.62,4.6-5.62,4.6l-.35.09-.34.1s-6.23.48-7.17-1.18c-.76-1.36.79-8.13.59-10C35.28,29.48,32.81,20.51,33.59,19.36Z"/><path class="cls-4" d="M48.66,41c.79,1.22.94,3.5.82,6.5a75.9,75.9,0,0,1-1.67,10.73c-.56,2.68-3.16,2.77-3.72.72-.15-.57-1.5-12.06-1.46-13.37s0-3.68.84-5.19C44.08,39.29,47.48,39.22,48.66,41Z"/><path class="cls-7" d="M39.37,17.05a16.51,16.51,0,0,0,.82-3.25l1.66.29,1.66.29a16.37,16.37,0,0,0-.34,3.34,6.27,6.27,0,0,0,1.31,2L41,19.09l-3.52-.62A6.28,6.28,0,0,0,39.37,17.05Z"/><path class="cls-4" d="M48.45,32.52c.86-.31,2.55.71,3.7,3.41,1.33,3.11,3.3,7.54,2.56,7.89-.34.16-.8-.11-1.13-.77-.68-1.39-2.51-3.36-3.83-5.13C47.72,35.19,46.78,33.11,48.45,32.52Z"/><path class="cls-4" d="M39.37,17.05l.47-1.49c.11-.48.21-1,.27-1.31h0l1.59-.19.15,0,1.66.29a16.37,16.37,0,0,0-.34,3.34,6.27,6.27,0,0,0,1.31,2s-2.18-1-2.58-1.19Z"/><path class="cls-7" d="M45.77,12.62c-.46,2.61-3.07,4.33-4.4,4.09S38.7,14,38.92,11.36s2.08-4,4-3.7S46.23,10,45.77,12.62Z"/><path class="cls-6" d="M41,9.44c.27.73,1,1.19,2.57,1.35,1.14.11,1.85,1.7,1.83,2.33,0,.24.82,4.65.82,4.65s1.36-5.58-.78-8.63S40.56,7.75,40.53,8A6.61,6.61,0,0,0,41,9.44Z"/><path class="cls-6" d="M41.63,8.84s0,1.11-1,1.3c-1.78.35-1.47,6.75-1.47,6.75s-1.91-8,1.33-8.9C42.38,7.48,41.63,8.84,41.63,8.84Z"/><path class="cls-7" d="M37.68,70.65s-.26,2.84-.38,3.13-.92,1.31-1.34,1.14c-1.17-.48-1.23-2.91-.89-3.6.21-.4.4-.83.55-1.11a4.45,4.45,0,0,1,.78-1.06Z"/><path class="cls-7" d="M44.64,57c1.1,1,1.15,1.94-.46,4.66s-6.57,9.61-6.9,9.38-1.6-1.23-1-2c.44-.54.51-1.56,1.1-3.14,1-2.72,2.38-6.14,2.71-6.7C40.66,58.33,42.87,55.44,44.64,57Z"/><path class="cls-7" d="M35,42.74c-.31,1.42.36,3.61,1.52,6.37a75.14,75.14,0,0,0,5.33,9.46c1.46,2.32,3.93,1.48,3.73-.63,0-.59-2.83-11.82-3.33-13s-1.3-3.45-2.6-4.57C38.72,39.5,35.51,40.63,35,42.74Z"/><path class="cls-8" d="M45.87,20.29l0,6.27S44.39,30.87,45,33s2.9,4.55,4.24,7.5,0,12.61,0,12.61-3.58,1.15-4.71,0A2.84,2.84,0,0,0,41,52.79c-.65.48-2.28,2.08-2.28,2.08s-3.26-5.25-3.95-10.16c-.55-3.92.92-8.84.63-10.83S33.9,23.82,33.9,23.82s1.69.17,3.53.26c.55,0-1.09-5.17-.54-5.17,1.31,0,1.75,5.65,5,4.91,2.44-.55,2.39-4.3,2.39-4.3Z"/><path class="cls-9" d="M36.59,28.29c.71-.48,5.2,1,7,.66a3.18,3.18,0,0,0,2.21-2.16c-.29.92-1.31,4.37-.83,6.21.56,2.13,2.9,4.55,4.24,7.5s0,12.61,0,12.61-3.58,1.15-4.71,0l-.06,0-2-6s3.3,1,3.25-1.91-2.88-9.34-3.71-11S35.87,28.77,36.59,28.29Z"/><path class="cls-10" d="M37.45,18.47a31.8,31.8,0,0,1,1.19,4.16c.3,1.7-2.74,15.52-3.24,18.39a42.9,42.9,0,0,0-.33,7.31l-1.71-1.66a94.46,94.46,0,0,0,1.17-11.54c0-4.09-1.68-14.1-1.36-15.42S37.45,18.47,37.45,18.47Z"/><path class="cls-10" d="M44.79,19.71s.81,6.4.71,8a81.49,81.49,0,0,0,.93,8.19S48.14,22.8,48,22C47.76,20.8,44.79,19.71,44.79,19.71Z"/><path class="cls-4" d="M34.26,19c-1-.12-2.12,2.86-2.48,6.15-.62,5.71-1.66,7.48.08,7.87,1.58.35,1.94-2,3.12-6.76C35.9,22.53,36.32,19.29,34.26,19Z"/><path class="cls-7" d="M31.55,31c.76-.52,2.65.05,4.44,2.37,2.07,2.68,5.09,6.46,4.47,7-.3.24-.81.09-1.29-.47-1-1.16-3.28-2.61-5-4C31.52,33.76,30.09,32,31.55,31Z"/><path class="cls-7" d="M43.69,39.1c0-.17-3.07-1.27-4.84.16-.33.26.66,1.1,1.16,1.29a1,1,0,0,0,1-.19C42.41,39.09,43.63,39.74,43.69,39.1Z"/><path class="cls-7" d="M40.13,39.22a6.51,6.51,0,0,1,1.38-.29c.09,0,.21-.07.3-.07a2.11,2.11,0,0,1,.26,0c.07,0,.12-.05.18-.05s.19.05.26.05l.25-.06c.24,0,.26.13.33.12h.34a3,3,0,0,1,.91.87c.07.13.62.82.56.89s-.4.13-.74-.2a3.52,3.52,0,0,0-.73-.63,4,4,0,0,1,.22.92c0,.16-.16.2-.29.19a2.32,2.32,0,0,1-.35-.37s-.15.28-.22.28c-.24,0-.35-.34-.43-.43s-.11.29-.21.27c-.38-.06-.48-1-.85-.89C41.11,39.89,40.29,39.75,40.13,39.22Z"/><path class="cls-6" d="M65.39,8.38S66.63,6.6,68,7.66a3.2,3.2,0,0,1,.6,4c-.67.71-1.8,3.84-1.58,3.89s-.07.58-.56.49a1.69,1.69,0,0,1-1.38-2.24,5,5,0,0,0,.11-2.77Z"/><path class="cls-4" d="M64,73.63a3.72,3.72,0,0,0,.65,1.59,1.57,1.57,0,0,1,0,1.43c-.57.61-1.28.45-2,.95S61,79.81,60.43,80s-2,.22-2.12-.07,1.3-1.46,1.3-1.46c2-2.86,2.19-4.16,2.19-4.16A16.64,16.64,0,0,1,64,73.63Z"/><path class="cls-11" d="M59.61,78.47s-.4.38-.33.49.74.05.9,0a17.06,17.06,0,0,0,3.72-3.16,2.25,2.25,0,0,0,.42-1.13,1.82,1.82,0,0,1,.62,1.46,2.34,2.34,0,0,1-.22.57A16,16,0,0,1,63,77.84c-.7.5-1.61,2.21-2.22,2.4s-2.69.29-2.8,0S59,79,59.61,78.47Z"/><path class="cls-11" d="M65,76s-.37,1.21-.47,1.61a12.46,12.46,0,0,0-.21,1.9H64s.2-2.44-1-1.63C62.59,78.09,65,76,65,76Z"/><path class="cls-4" d="M64,56.16c1.67,1.63,2,5.89,1.94,7.52S63.88,73.91,64,74.5s-2.18.14-2.17-.19a115.44,115.44,0,0,0-.87-12.89c-.14-.86-.59-4.79-.6-5.18C60.31,54.24,63,55.22,64,56.16Z"/><path class="cls-12" d="M74.26,77a13.86,13.86,0,0,1,.85,2.62c0,.56-.27,1.88-.7,1.93s-1.49-.93-1.61-1.08A5.45,5.45,0,0,1,72,77.64Z"/><path class="cls-7" d="M73.82,75.79a12.31,12.31,0,0,1,.82,2.81c0,.28-.18,1.45-.58,1.46-1.14,0-2.08-2-2-2.64s.07-1.44.07-1.44Z"/><path class="cls-7" d="M69.56,55.92c-1.5.29-1.88,1.33-1.15,5.73C69,65,71.06,72.52,72.05,76c.32,1.1.2,1.84.31,1.84.42,0,1.7,0,1.82-1,0-.21-.45-.94-.46-1.54,0-3.43,0-12.12-.24-13.34C73.25,60.51,72,55.46,69.56,55.92Z"/><path class="cls-13" d="M59.65,18.54C58.7,18.22,57,20.92,56,24.07c-1.71,5.48-3.4,6.38-1.54,7.38,2.31,1.24,2.37-1.2,4.45-5.67C60.58,22.29,61.61,19.2,59.65,18.54Z"/><path class="cls-4" d="M58.67,40.11c-.7,1.27-.67,3.55-.32,6.53.47,4,1.8,10.51,2,11.08.75,2.63,3.33,2.52,3.73.43.11-.57,1-12.22.85-13.52a13.94,13.94,0,0,0-1.79-5.11C62.42,38.45,59.71,38.21,58.67,40.11Z"/><path class="cls-7" d="M70.51,40.2c.93,1.11,1.35,3.36,1.6,6.34a106.93,106.93,0,0,1,.12,10.78C72,60.05,69,60.5,68.16,58.53c-.22-.54-3-11.76-3.07-13.06s-.44-3.66.2-5.25C65.76,39,69.12,38.55,70.51,40.2Z"/><path class="cls-14" d="M59.08,38.23a6.34,6.34,0,0,0-.67,3c.48,1.85,5.93,3.41,5.93,3.41h.36v-6C62.6,38.65,61.18,38.23,59.08,38.23Z"/><path class="cls-13" d="M71.43,20c-.37-.84-2.29-1.21-3.17-1.47a23.1,23.1,0,0,0-3.56-.36s-4.22.42-5.13.39c-.38,0-.67,1.37-.82,1.77-.83,2.22-1.82,4.81.27,6.61.47.41.89,5.1.89,7.28a11.64,11.64,0,0,1-.83,4c2.1,0,3.52.42,5.62.42H71a34.85,34.85,0,0,1-1.51-4.45C68.26,27.51,72,21.25,71.43,20Z"/><path class="cls-14" d="M64.7,38.65v6h.36s6.12-1.14,6.6-3a6.34,6.34,0,0,0-.67-3Z"/><path class="cls-7" d="M66.62,16.78a16.66,16.66,0,0,1-.24-3.34H63a16.66,16.66,0,0,1-.24,3.34,5.07,5.07,0,0,1-1.34,1.55l2.47,1.15,3.58-1.33A5.2,5.2,0,0,1,66.62,16.78Z"/><path class="cls-4" d="M66.4,14.75c0-.71,0-1.31,0-1.31H63a16.66,16.66,0,0,1-.24,3.34,6.22,6.22,0,0,1-1.64,1.73l5.27-3.76Z"/><path class="cls-7" d="M67.66,12.38c-.77,2.53-3.56,3.92-4.86,3.52s-2.33-3-1.79-5.59,2.55-3.77,4.46-3.18S68.42,9.85,67.66,12.38Z"/><path class="cls-6" d="M63.27,8.65c.19.76.84,1.3,2.4,1.64,1.11.25,1.62,1.91,1.52,2.53a13.3,13.3,0,0,1-.46,1.34,4,4,0,0,0,1-5.28C66,5.6,63.07,6.93,63,7.16A6.77,6.77,0,0,0,63.27,8.65Z"/><path class="cls-6" d="M64,8.13s-.15,1.09-1.1,1.18A5.14,5.14,0,0,0,61,10S61.12,7.45,63,7.16,64,8.13,64,8.13Z"/><path class="cls-15" d="M66.48,27.51c-.56-.26-1.78-.15-4.66-.3s-3.28-1.6-3.71-2.24,0-2.68,0-2.8c-.5,1.71-.61,3.44.91,4.75.47.41.89,5.1.89,7.28a11.64,11.64,0,0,1-.83,4,30.55,30.55,0,0,1,3.52.29,13.36,13.36,0,0,1-.37-2.39c0-3.13,6.21-1,6.9-2.3s-2.43-4.61-2.09-5S67,27.77,66.48,27.51Z"/><polygon class="cls-15" points="63.61 18.6 63.9 19.48 62.33 18.82 63.61 18.6"/><polygon class="cls-15" points="63.9 19.48 64.23 18.6 65.16 19.04 63.9 19.48"/><path class="cls-16" d="M59.08,38.23A10.38,10.38,0,0,0,58,42.56c-.19,2.8,1.82,15.67,1.82,15.67l5.55.31L72.71,58s-.18-11.76-.51-15.28-1.34-4.38-1.34-4.38l-6.68.27Z"/><polygon class="cls-17" points="64.23 18.6 65.25 20.12 68.26 18.51 67.17 17.08 64.23 18.6"/><polygon class="cls-17" points="60.69 18.51 62.03 17.3 63.61 18.6 62.47 19.99 60.69 18.51"/><path class="cls-18" d="M63.88,50.15c-.4.45-.22,4-.82,4.64s-1.59.62-2.14-.61-2-10-.82-13a4.31,4.31,0,0,1,2.5-2.66l-.21-.06-3.31-.23A10.38,10.38,0,0,0,58,42.56c-.19,2.8,1.82,15.67,1.82,15.67l5.55.31,1.19-.07A2,2,0,0,1,65,57C64.61,54.56,64.21,49.76,63.88,50.15Z"/><path class="cls-13" d="M70.72,19.35c1.12.13,1.59,3.27,1.12,6.51-.8,5.61-.12,7.57-2.14,7.49C67.88,33.28,68.09,31,68,26.09,68,22.27,68.38,19.07,70.72,19.35Z"/><rect class="cls-8" x="58.37" y="21.91" width="8.43" height="11.25" transform="translate(-0.42 0.97) rotate(-0.89)"/><path class="cls-9" d="M59.65,22s.52,3.88,2,5.67S66.83,30,66.83,30l.06,3.08-8.43.13L58.28,22Z"/><path class="cls-7" d="M56.47,31c.61-.71.08-2.21-2.08-4C51.9,25,48.38,22,47.87,22.6,47.18,23.49,50,26.31,52,29S55.22,32.48,56.47,31Z"/><path class="cls-7" d="M71.13,32.36c.24-.86-1.46-2.35-4-3.05-3-.82-7.24-2.06-7.42-1.27-.24,1.06,3.36,2.4,6.1,3.94S70.64,34.15,71.13,32.36Z"/><path class="cls-7" d="M57.66,28.15h0A.27.27,0,0,1,58,28l1.08.3a.26.26,0,0,1,.19.32h0a.27.27,0,0,1-.33.19l-1.08-.3A.26.26,0,0,1,57.66,28.15Z"/><path class="cls-7" d="M57.74,27.66h0a.26.26,0,0,1,.32-.18l1.09.29a.27.27,0,0,1,.18.33h0a.26.26,0,0,1-.32.18L57.92,28A.27.27,0,0,1,57.74,27.66Z"/><path class="cls-7" d="M57.85,27.19h0a.26.26,0,0,1,.32-.18l1.09.29a.27.27,0,0,1,.18.33h0a.26.26,0,0,1-.32.18L58,27.52A.27.27,0,0,1,57.85,27.19Z"/><path class="cls-7" d="M58,26.75h0a.26.26,0,0,1,.32-.18l1.09.29a.26.26,0,0,1,.18.32h0a.26.26,0,0,1-.32.18l-1.08-.3A.25.25,0,0,1,58,26.75Z"/><path class="cls-7" d="M61.61,28A18.21,18.21,0,0,0,60,26.81a11.26,11.26,0,0,0-1.75-.25s.29.57.16.87-.53,1-.53,1a14.93,14.93,0,0,0,1.57.61,5.64,5.64,0,0,0,1.36.24Z"/><path class="cls-7" d="M49.63,23.38S49.06,22,48.07,22a3.8,3.8,0,0,0-2,1.08c-1,.63-2.42.19-3.08.46s-.56.72-.3.7c1.47-.11,2.4.29,3,.16a22,22,0,0,1,3.12.07Z"/><path class="cls-7" d="M49.08,22.5a3.33,3.33,0,0,0-1.47-.79c-.64-.06-1.23.56-1.78.59s-.33.29-.27.37a6.46,6.46,0,0,0,1,.06C46.91,22.76,48.19,23.5,49.08,22.5Z"/><path class="cls-7" d="M27,30.55c1.68,1,3.44-2.65,4.21-4.48s2.48-7.37,2.48-7.37l-1.92-.95a53.52,53.52,0,0,0-5.72,9C25.83,27.29,25.32,29.53,27,30.55Z"/><path class="cls-11" d="M9.12,82.17s1.22,2.26,1,2.74a2.35,2.35,0,0,1-2.29,1,9.91,9.91,0,0,1-2.57-1.42c-.55-.18.1-3.19.1-3.19Z"/><path class="cls-7" d="M17.55,19.68c-1.43,1.09-.95,2.6.22,3.93s8.53,6.91,9.1,6.89,2.4-1.85,2.14-2.63-5.81-6.47-7-7.4S19.22,18.4,17.55,19.68Z"/><path class="cls-19" d="M19.05,19.12c.69-.05,2.35.1,4.3,2.05C24.66,22.48,27.08,25,27.08,25a6.38,6.38,0,0,1-1.65,2.42,5.82,5.82,0,0,1-2.73,1.46s-5.2-5.22-5.62-6.66C17,21.82,17.16,19.24,19.05,19.12Z"/><path class="cls-7" d="M14.18,12.22s-.24,5.18-.54,5.43c-.94.78-4.34,1.43-5,2.79-.78,1.64,3.44,9,4,11.5s-.6,6.23-1,8.62,7.16,5.32,7.44,5.32a14.4,14.4,0,0,0,3.17-3.05c.46-.78,0-6.93,0-8.49s.38-7.07.45-7.42a11,11,0,0,0-.23-4.81c-.09-.5-.06-1.35-.32-1.68-.5-.64-3.32-1.5-3.37-1.83s-.41-4.81-.41-4.81Z"/><path class="cls-20" d="M13.64,17.65l4.54,2.72.65-1.77s3,.94,3.37,1.59A12.67,12.67,0,0,1,22.9,23a24.4,24.4,0,0,1,0,5c-.12,1.22-.09,2.83-.28,4.9-.16,1.78,0,6.19,0,6.19s-1.69.07-4.32-.06a39.62,39.62,0,0,1-6.24-.74c-.59-.48.23-5.2.13-5.72S8.36,23,8.31,21.84a2.41,2.41,0,0,1,1.44-2.4C10.65,19,13.64,17.65,13.64,17.65Z"/><path class="cls-19" d="M10.2,19.22s-3,1.64,0,3.91c1.26,1,7.33,2.52,8.47,2.87,4.08,1.25-2.23,10.29-2.71,11a3.1,3.1,0,0,0-.48,1.62l-3.93-.45c-1.22.24.65-5.61.19-6.87s-3.41-8.48-3.4-9.43A2.68,2.68,0,0,1,10.2,19.22Z"/><polygon class="cls-4" points="18.58 15.73 13.98 14.07 13.87 16.79 15.29 17.66 18.58 15.73"/><path class="cls-7" d="M19.57,7c-1.2-1-4.64-1.85-6.22.45a4.85,4.85,0,0,0,.2,5.82,5.61,5.61,0,0,0,2.83,2.15,11.19,11.19,0,0,0,3.29.26c.34-.13.5-2.63.6-2.62s.37-.16.38-.36-.38-2.07-.31-2.27S20.94,8.15,19.57,7Z"/><path class="cls-6" d="M20.31,8.07s-1.95-1-4.24,1.26c-.49.49.55,2.43.43,2.61s-1.94-1.38-1.86-1.15c.77,2.26.07,3.55-.14,3.57-.63.07-2.71-3.09-1.84-5.74A4.36,4.36,0,0,1,17,5.71C17.67,5.83,19.7,5.9,20.31,8.07Z"/><path class="cls-7" d="M15.77,11.25c.25.72.4,1.7,0,1.83s-.92-.34-1.17-1.06-.14-1.41.25-1.55S15.52,10.53,15.77,11.25Z"/><rect class="cls-11" x="16" y="82.33" width="2.94" height="0.55"/><path class="cls-11" d="M16.11,78.46a5.19,5.19,0,0,0-.68,2.07c0,.58.3,1.8.68,1.8a27.38,27.38,0,0,1,3.59.2c1.14.15,1.57.81,4.51.8.85,0,2.36,0,2.36-.4,0-1.52-2.81-1-3.7-1.8a12.19,12.19,0,0,0-3.77-2.59A26.61,26.61,0,0,0,16.11,78.46Z"/><path class="cls-9" d="M17.51,38.39s-3.92,3.92-4.1,5.62,1.47,7.17,2.06,11.47.94,5.17.8,6.18S15,66.78,15,69.52c0,3.19-.12,9.73-.12,9.73a5.16,5.16,0,0,0,3.05.66,4.79,4.79,0,0,0,2.63-1s.89-16,1.07-17.73c.11-1.09,1-8.62,1.28-14.76.08-2-.37-7.62-.37-8.43Z"/><polygon class="cls-15" points="17.98 19.3 18.18 20.38 15.79 18.95 17.98 19.3"/><polygon class="cls-15" points="18.18 20.38 18.56 19.04 19.14 19.49 18.18 20.38"/><path class="cls-8" d="M11.41,38.12a56.9,56.9,0,0,0-2.19,6.4C8.6,47.09,7.86,60.37,7.63,61.61s-1,5.07-1.6,8.84-1,11.35-1,11.35l4.84.76s2.88-15.89,3.33-18.39S18.47,44,18.47,44l.6-5.7Z"/><path class="cls-9" d="M11.56,49c-.41,1.7-1.59,13.25-1.68,13.9S6.79,81.23,6.65,82.05L5.06,81.8s.36-7.57,1-11.35,1.38-7.59,1.6-8.84,1-14.52,1.59-17.09a56.9,56.9,0,0,1,2.19-6.4l4.23.12S12,47.27,11.56,49Z"/><path class="cls-21" d="M11.3,38.12l7.88.13c.45,0,3.37-.27,3.37-.27l.06,1.17s-2.84.24-4.19.24S11,39.07,11,39.07Z"/><rect class="cls-22" x="18.36" y="38.18" width="1.89" height="1.36" rx="0.63" ry="0.63"/><polygon class="cls-17" points="13.01 17.93 13.87 16.79 17.98 19.3 17.32 20.77 13.01 17.93"/><polygon class="cls-17" points="18.56 19.04 19.54 20.16 19.69 18.96 18.87 18.18 18.56 19.04"/><path class="cls-7" d="M9.89,20.09c-1.76.35-2,1.87-1.6,3.53s4.91,11,5.43,11.24,3-.59,3.09-1.39S14.12,24,13.53,22.71,12,19.69,9.89,20.09Z"/><path class="cls-20" d="M11.44,20.11a4.16,4.16,0,0,1,2.32,2.38c.46,1.79,2,6.39,2,6.39A6.21,6.21,0,0,1,13.2,30.3a5.72,5.72,0,0,1-3.09.09s-2.17-7-2-8.48A2.41,2.41,0,0,1,11.44,20.11Z"/><path class="cls-7" d="M13.52,32.17c-1.59,1.14,1.06,4.21,2.42,5.64S21.71,43,21.71,43l1.64-1.39a53.76,53.76,0,0,0-6-8.84C17,32.37,15.13,31,13.52,32.17Z"/><path class="cls-7" d="M31.32,17.22A9.43,9.43,0,0,1,32,15c.3-.33,1.67-3.08,1.88-2.75S33.08,15,33.15,15a7.54,7.54,0,0,1,1.72.93c.39.39-1.2,2.86-1.2,2.86l-1.82.33Z"/><path class="cls-23" d="M28.39,41l.41-.27a.2.2,0,0,1,.27.06h0a.2.2,0,0,1-.06.28l-.4.26a.2.2,0,0,1-.28-.05h0A.21.21,0,0,1,28.39,41Z"/><path class="cls-24" d="M22.53,45.29h0c-.11-.16.53-.78.69-.89l5-3.42a.36.36,0,0,1,.49.09h0a.35.35,0,0,1-.09.49l-5,3.42C23.46,45.08,22.64,45.45,22.53,45.29Z"/><rect class="cls-23" x="27.61" y="41.38" width="0.76" height="0.36" transform="translate(45.36 -5.44) rotate(54.25)"/><path class="cls-25" d="M26.47,42.67h0a.11.11,0,0,1,0-.16l1.65-1.16a.12.12,0,0,1,.16,0h0a.11.11,0,0,1,0,.16L26.62,42.7A.11.11,0,0,1,26.47,42.67Z"/><path class="cls-7" d="M23.85,46.19h0a.39.39,0,0,0,.14-.52l-.81-1.41a.39.39,0,0,0-.52-.14h0a.39.39,0,0,0-.14.52l.81,1.41A.39.39,0,0,0,23.85,46.19Z"/><path class="cls-7" d="M24.5,45.89h0a.39.39,0,0,0,.14-.52L23.83,44a.37.37,0,0,0-.52-.14h0a.37.37,0,0,0-.14.51L24,45.75A.38.38,0,0,0,24.5,45.89Z"/><path class="cls-7" d="M25.11,45.57h0a.39.39,0,0,0,.14-.52l-.81-1.41a.37.37,0,0,0-.51-.14h0a.39.39,0,0,0-.14.52l.81,1.41A.39.39,0,0,0,25.11,45.57Z"/><path class="cls-7" d="M25.67,45.2h0a.38.38,0,0,0,.14-.52L25,43.27a.39.39,0,0,0-.52-.14h0a.38.38,0,0,0-.14.52l.8,1.41A.39.39,0,0,0,25.67,45.2Z"/><path class="cls-7" d="M22.4,40.48a26.82,26.82,0,0,1,2.48,2,15.85,15.85,0,0,1,1,2.36s-.9-.2-1.27.09-1.26,1.12-1.26,1.12a11.52,11.52,0,0,1-1.62-2,8.09,8.09,0,0,1-.56-1.55Z"/><rect class="cls-26" x="3.52" y="63.73" width="38.15" height="2.5" transform="translate(-42.38 87.58) rotate(-90)"/><rect class="cls-26" x="71.99" y="63.73" width="38.15" height="2.5" transform="translate(26.08 156.04) rotate(-90)"/><rect class="cls-26" x="21.7" y="46.51" width="70.2" height="5.42"/><polygon class="cls-27" points="92.27 50.18 21.34 50.72 21.34 48.92 92.27 48.94 92.27 50.18"/><rect class="cls-10" x="18.33" y="45.81" width="77.15" height="3.15"/><path class="cls-7" d="M88.67,20.8c1.06-.55,2.75.22,3.6,2.82s2.8,9.44,3.06,10.58,1.31,3.49-.86,4.5-3.11-1.29-3.89-3.06C87.12,27.79,85.8,22.28,88.67,20.8Z"/><path class="cls-7" d="M68.08,34.7c-.41-1.06-1.31-1.77-4.4-1s-9.47,3.11-9.47,3.11l.22,1.72a69.36,69.36,0,0,0,8.22-.11C64.36,38.07,69.13,37.5,68.08,34.7Z"/><path class="cls-7" d="M95.44,36.09c-.41-1.07-1.31-1.78-4.4-1s-9.47,3.11-9.47,3.11l.22,1.73A69.52,69.52,0,0,0,90,39.8C91.72,39.46,96.5,38.89,95.44,36.09Z"/><path class="cls-11" d="M86.93,85.56A9.59,9.59,0,0,1,89.49,85c.63,0,1.4.53,1.44,1.06,0,.21-.22.46-.44.71a15.74,15.74,0,0,1-3.39,2.14,6.77,6.77,0,0,1-2.54-.09c-.55-.2-.55-2.08-.55-2.08Z"/><path class="cls-7" d="M75.89,33c-1.18-3.63-4.25-9.85-2.46-10.93,2.34-1.42,9-2.29,9-2.29v.12s5.73.74,8.07,2.15c1.79,1.08-.29,7.43-1.47,11.06-.28.87-.25,4.77-.14,8.24,0,.85.72,4.78.61,6.4,0,.49-5.52,3.49-7.06,3.57v-.12c-1.53-.07-7-3.07-7-3.56a61.82,61.82,0,0,1,.6-6.4C76.14,37.75,76.17,33.84,75.89,33Z"/><path class="cls-7" d="M76.57,21.68c-.81-.88-2.66-.73-4.34,1.43S66.39,31,65.75,32s-2.42,2.84-.72,4.53,3.36-.16,4.7-1.56C75.65,28.79,78.76,24.05,76.57,21.68Z"/><path class="cls-4" d="M79.67,18.68c.16-.69.54-4.11.54-4.11h2.26v.11h2.27s.39,3.42.54,4.11,2,1.74,2,1.74H82.48v-.12H77.66S79.52,19.37,79.67,18.68Z"/><path class="cls-7" d="M86.1,43.91c2.77,0,3.84,1.92,3.77,7.83s-1,12.33-1.34,13.25-4.3,1-4.69.41-1.35-12.81-1.35-14.73S83.09,43.92,86.1,43.91Z"/><rect class="cls-7" x="83.83" y="63.27" width="4.72" height="6.45" rx="2" ry="2" transform="translate(173.99 130.85) rotate(178.59)"/><path class="cls-7" d="M86.3,66.11c.85,0,2.92.28,2.81,5.79S86.66,85,86.66,85h-2s-1-10.21-1-12.17C83.66,68.35,83.63,66.11,86.3,66.11Z"/><path class="cls-7" d="M78.8,44c-2.74-.3-4,1.51-4.56,7.4s-.35,12.36-.07,13.32,4.18,1.38,4.62.89,2.69-12.6,2.89-14.5S81.8,44.28,78.8,44Z"/><rect class="cls-7" x="73.98" y="63.18" width="4.72" height="6.45" rx="2" ry="2" transform="translate(9.24 -9.32) rotate(7.44)"/><path class="cls-7" d="M76.27,66c-.84-.09-2.93,0-3.4,5.46s1.07,13.25,1.07,13.25l2,.21s2-10,2.25-12C78.66,68.51,78.93,66.29,76.27,66Z"/><path class="cls-9" d="M89.1,42.72a71.67,71.67,0,0,1,1.15,7.53c.16,2.65-1.13,14.23-1.14,15.5s.09,5.2,0,9-1.07,11.4-1.07,11.4l-4.92-.12s0-16.24,0-18.79-.63-16-.63-16V42.93Z"/><path class="cls-9" d="M76,42.57A74.33,74.33,0,0,0,74,49.93c-.43,2.62-.36,14.28-.49,15.55s-.63,5.15-1,9-.12,11.45-.12,11.45l4.9.4s1.7-16.15,2-18.69,3.19-15.91,3.19-15.91l0-8.78Z"/><path class="cls-11" d="M87.7,86.18a18.25,18.25,0,0,1,0,2.28c0,.29-.8.61-2.09.69a5.07,5.07,0,0,1-2.12-.38c-.57-.25.18-2.69.18-2.69Z"/><path class="cls-11" d="M74.06,85.15a9.89,9.89,0,0,0-2.56-.62c-.63,0-1.41.53-1.45,1.06,0,.21.23.46.44.71a15.74,15.74,0,0,0,3.39,2.14,6.8,6.8,0,0,0,2.54-.08c.55-.19.56-2.08.56-2.08Z"/><path class="cls-28" d="M76.51,52.51c-.27,1.73-.6,13.4-.65,14.06S74.14,85.21,74.06,86l-1.61-.13s-.21-7.62.12-11.45.82-7.71,1-9,.06-12.93.49-15.55A74.33,74.33,0,0,1,76,42.57l6.54.36c.05,9.46-7.34,6.94-7.56,7.47S76.62,51.86,76.51,52.51Z"/><path class="cls-28" d="M86.81,52.91c-.42,2.19-1,12.92-1,13.2s0,20,0,20l-.09,0-2.65-.06s0-16.24,0-18.79-.47-12.45-.47-12.45.74-1.93,1.92-1.82S86.89,52.47,86.81,52.91Z"/><path class="cls-4" d="M78.32,12.2c0,.3-.15.63-.11,1,0,.16.21.38.23.55.14,1.4.45,3,1.25,2.93,1.44,0,2.3.1,3.27.1,1.46,0,3.34-1.66,3.68-4.61s-2.54-5.13-5.21-5.1-3.24,2-3.14,4.62C78.3,11.88,78.3,12,78.32,12.2Z"/><path class="cls-6" d="M82.82,6.25c-2.14-.38-5.45,1.51-4.19,2.68.38.34.45,3.64.45,3.64s.46-.23.63,0,.29,1.33.49,1.84,1.46,2.48,1.82,2.48,2.65.09,3-.23a13.53,13.53,0,0,0,1.6-3.13C86.88,12.5,88.29,7.23,82.82,6.25Z"/><path class="cls-4" d="M79.37,11.31c0-.11.61-.48.89.31a4.7,4.7,0,0,1-.46,2.1C79.56,13.72,79.32,11.9,79.37,11.31Z"/><path class="cls-12" d="M72.86,22.05c.3-.51,1.94-.93,3.44-1.4a15.87,15.87,0,0,0,2.4-1l7.51,0a11.05,11.05,0,0,0,2.71.75,2.56,2.56,0,0,1,2.39,1.49c.26.54.37,5.44-1.86,11.87-.3.88.49,7-.28,8.89l-6.62.61-6.62-.59c-.61-2.11,0-8.12-.3-9S72.35,22.9,72.86,22.05Z"/><polygon class="cls-11" points="77.92 20.08 87.07 20.09 85.79 18.58 79.2 18.57 77.92 20.08"/><path class="cls-12" d="M73.28,21.7s-1.11.14-2.61,2.83c-1,1.89-5.1,7.43-5.1,7.43a6.92,6.92,0,0,0,2.53,2.61c1.49.85,2,.67,2,.67l5.41-5.87Z"/><path class="cls-12" d="M90.74,21.18s1.68,1,2.5,4.31c.52,2.09,2.28,8.72,2.28,8.72a7,7,0,0,1-3.27,1.59c-1.69.29-2.07,0-2.07,0l-3.1-7.35Z"/><path class="cls-7" d="M55.41,36.71s-.51-.64-.61-.72a6.54,6.54,0,0,1-1.24-.92c-.18-.3-.2-.52-.26-.57s-.72,0-.52.58.67,1,.65,1.19-1.29.29-1.55.21-1.88-.89-2-.93-.33-.07-.39,0a1,1,0,0,0,.11.61c.07.09-.16.17-.14.27s.13.46.13.46a1.75,1.75,0,0,0,.13.58,7.21,7.21,0,0,0,.69.79,11.25,11.25,0,0,0,1.9.85c.38,0,2.57,0,3.24-.65C55.9,38.15,55.41,36.71,55.41,36.71Z"/><path class="cls-11" d="M89.16,44.06,75.59,44a.32.32,0,0,1-.32-.32l.28-1a.32.32,0,0,1,.32-.32H89.16a.32.32,0,0,1,.33.32v1A.32.32,0,0,1,89.16,44.06Z"/><path class="cls-15" d="M51.92,65.76c.8.88,3,.08,4.64-1,1.86-1.24,4.2-4.81,4.2-4.81l-3.45-3.16a8.33,8.33,0,0,1-2.65,3c-1.68,1-2-.43-2-.43Z"/><path class="cls-13" d="M51.92,65.76s.18-1,.52-1.17a.93.93,0,0,1,1.16.19l-1-5.41Z"/><rect class="cls-29" x="56.9" y="41.43" width="3.55" height="4.4"/><path class="cls-29" d="M60.3,45.29l-.06-.4s1.36-.25,1.36-1.38-1.24-1.12-1.29-1.12V42A1.58,1.58,0,0,1,62,43.51,1.93,1.93,0,0,1,60.3,45.29Z"/><rect class="cls-29" x="29.13" y="41.43" width="3.55" height="4.4" transform="translate(61.81 87.27) rotate(180)"/><path class="cls-29" d="M29.28,45.29l.07-.4c-.06,0-1.37-.25-1.37-1.37s1.24-1.13,1.29-1.13V42a1.6,1.6,0,0,0-1.7,1.54A1.91,1.91,0,0,0,29.28,45.29Z"/></g></g></svg>